<svg xmlns="http://www.w3.org/2000/svg" viewBox="0 0 512 512"><defs><style>.cls-1{fill:#fff;}.cls-2{fill:#de6661}</style></defs><title>icon</title><g id="Layer_2" data-name="Layer 2"><rect class="cls-1" width="512" height="512"/></g><g id="Layer_1" data-name="Layer 1"><path class="cls-2" d="M165.74,164.47c-2.05-1.23-2.87-.14-3.82.41-2.46,1.5-4.64,6-7.37,3.55-3.55-3.14,1.63-4.64,3-7,.68-1.23,1-2.19,0-3.14-1.91-1.92-3.82-1.23-5.73,0-1.51,1.09-3.42,2-4.78,0s.54-3,1.91-4.24c4.91-4.64,4.91-7.78-2.73-8.33-1.5-.13-3.28-.27-3.69-1.91s1-2.59,2.46-3.27c6-2.6,5.87-5.47.13-8.33-1.36-.69-3.14-1.23-3-2.87.14-2.46,2.32-2,4.1-2.46,6-1.36,7.51-3.82,1.77-7.78-1.23-1-2.46-1.91-1.77-3.55a2.12,2.12,0,0,1,2.73-1.23c.13,0,.13.14.27.14,9.7,4.64,8.19-1.64,7-7.1,2.74-2.32,10.11,5.73,8.61-4.37-.14-1.23,1.63-1.23,2.86-1.23,16.39,1,32.64,3.28,47.66,10.51,17.61,8.47,33.31,5.33,47.78-7.37,15-13.24,32.5-15.16,51.07-9.15,10.79,3.55,20.07,5.6,30-3.28,9.42-8.32,21.71-7.23,31.67.55,4.92,3.82,10.25,4.92,15.84,5.74,17.89,2.73,25.4,19.38,15.43,34.54a16.75,16.75,0,0,0-2.73,9.15c-.54,13.38-2.46,26.35-7.24,39a38.41,38.41,0,0,0-.27,27.31c13,37.41.82,76.46-29.9,99.81-2.05,1.63-3.55,2.73-3.55,5.59,0,1.78-.27,4.24-1.37,5.06-11.19,8.73-10,22.11-13.65,33.86-10.1,31.81-33.86,50.93-63.08,63.35-65.81,28-136.54-6.83-165.76-60.9-28.12-52-21.43-102,11.47-149.64a211.46,211.46,0,0,1,30.31-35C163.42,169.39,166.15,168,165.74,164.47Zm136.4-43c1.51-8.33-.68-11.88-6.69-10.79a9.13,9.13,0,0,0-8.05,7.51c-.68,3.83,1.77,6.42,4.91,7.92,5.19,2.32,7.79-.95,10-4.91Zm99.95-6c-5.6,13.25-19.39,13.66-29.22,20.35-2.05,1.36-4.64.41-7,.13-3.28-.41-4.37-2-3.83-4.77,1.78-7.51-1.22-13.11-6-18.71-4.51-5.33-2.6-10.1,2.73-13.79a43.68,43.68,0,0,1,6.82-3.14C358,92.11,353.35,94.43,349,98.93c-4.65,4.78-2.73,9.29-.14,14.07,1.23,2.18,3.82,5.18.27,7s-5.46-1.37-6.69-4.23a22.84,22.84,0,0,1-1.64-4.24c-1.36-4.78-2.86-5.87-8-3.14-15.29,8.06-26.9,20.48-39.46,31.68-11.47,10.24-15.57,23.76-16.11,38.78,4.5-5.6,8.33-11.61,12.29-17.62,3.68-5.59,7.51-11.06,13.65-14.2a3.26,3.26,0,0,1,4.51.82c0,.14.13.14.13.28,1.09,1.63,0,3-1.23,3.82-10.51,7.1-15,18.7-21.71,28.67-10.1,15-12.15,36.73-5.32,49.16,1.91-1.51,1.91-3.83,2-5.74,2.73-24.71,12.83-45.6,31-62.81,11.06-10.51,22.94-15.15,37.82-9.42s29.36,11.61,44.1,18.71c1.92-8.74,4.37-16.66,4-24.85,0-1.64,1.51-4.64-2.32-4.51-2.18.14-4.64,0-4.78-2.73-.13-3.14,2.6-3.41,4.78-4.37,8.47-4.09,9.83-8.46,6-18.57ZM376,199.83c-3.69,7.24-7,14.48-10.79,21.17-8.6,14.88-8.87,31-6.82,47.38.27,2.18.27,5.46,3.68,5.18,4-.27,2.46-3.68,2.19-5.73-2.32-19.39,4.23-36.32,14.61-52C382.84,209.53,384.75,204.61,376,199.83ZM292.18,308.11c6,13.79,13.65,19.11,25.67,18.7a59.35,59.35,0,0,1,16.24,1.78c10.65,2.59,17.48-1,21.58-10.65C334,322.58,313.2,319.44,292.18,308.11Zm32.08-203C300.1,95,281.12,94.15,263,114c-2.19,2.46-8.33,3.28-5.6,7.51,2.73,4,7.65,1.5,11.47-.55,3.28-1.63,6.28-3.55,8.19-7a23.32,23.32,0,0,1,1.5-2.32c7.38-9.56,14.07-11.06,25.4-7C310.2,107.12,316.75,112.72,324.26,105.08ZM282.48,280a105.33,105.33,0,0,1,6.69-40,140.15,140.15,0,0,0,8.74-50.8C288.63,218.81,276.34,247.9,282.48,280ZM113.86,328.73l-.69.27c1.92,4.78,4,9.42,5.88,14.2,2,5.19,4.37,4.51,7.78,1.09,3.82-3.82,5.87-7.37,3-12.7a35.33,35.33,0,0,1-4.09-12.83c-.82-5.87-4.24-6.15-9.15-4.92-4.64,1.23-7,2.87-4.78,8.06A56.77,56.77,0,0,1,113.86,328.73ZM319.07,277.8c-1.91-7.38,2.19-11.74,7.65-12.43,14.34-2.18,20.07,8.19,23.9,21,6-15.84-4-29.22-19.8-29.49-7-.14-13.52.95-17.34,7.51-3.42,6.28,4.91,8.05,5.59,13.38Zm-27.58,4.37c4.92-2.32-1.09-10.65,6.15-10.38,5.6.27,5.73-3.14,6.42-6.69,1.5-6.69.13-13.24-2.05-19.53-1-2.59-2.32-6.14-4.78-6-3.82.27-2.87,4.5-3.41,7.23s-1.37,5.87-1.78,8.88c-1.5,8.74-3,17.48-.55,26.49Zm59-23.62c1.09-16.39-3.28-30.32-16-41.24-8.46-7.24-17.61-7-27.3-4.5-2.73.68-5.33,2.32-4,5.87,1.36,3.27,4.37,2.45,6.14.95,7.37-5.87,14.2-1.77,20.34,1.5,8.88,4.65,18.71,18.44,15.57,25.4s1.78,8.6,5.19,12ZM175.85,323.26c-3,4-11.47,4.1-9.15,10.25,2.18,5.73,6.55,11.6,13.11,13.92,2.45.82,9.14-11.19,7.51-14.06C184.72,329,182.26,324,175.85,323.26ZM114.4,308.79c10.79-1.64,8.06-10.1,7-17.34-.41-2.73,1.23-7.92-4.1-7.1-4.64.68-10.92,1-10.24,8.6.41,4.24,1,8.33,1,12.56s2,5.19,6.41,3.28Zm31,51.89c-2.32-3.28-5.19-7-7.78-10.93-2.33-3.41-4.65-3.27-7.38-.68-2.32,2.32-7.1,4.23-3.14,8.47,2.73,3,4.1,6.41,5.74,9.83,1.23,2.45,2.73,7.51,6.55,5.46s8.47-5.19,6-12.15Zm140,15.15c12.29,1.23,17.61-6,20.89-15.7,1-2.73,3.28-6.42.68-8.33-3.14-2.32-7.51-.41-9.55,2.32-5.19,6.42-10.38,13.11-12,21.71Zm23.48-10c15.84-4.64,22.94-15.56,19.53-30.58-12,6.14-14.2,18.43-19.53,30.58ZM227.05,186.45c0-5.73-2.87-5.32-6.56-3.41-5.87,3.28-10,19.8-6.28,25.53,1.51,2.32,2.73,1.64,4.1.14C224.45,202.43,229.1,195.46,227.05,186.45ZM164.24,381.16c-1-3.28-12.42-11.06-14.2-9.7-2.87,2.19-7.51,3.42-7.1,8.2.27,3.55,11.61,12,14.06,10.51C160.55,388.12,164,385.53,164.24,381.16Zm20.34,14.2c-4.23-3.83-8.6-8.6-14.33-7.79-3.42.55-10.52,4.1-8.47,8.2,2.6,5.19,9.29,9.14,15.57,9.14C181.31,404.91,183.36,399.86,184.58,395.36Zm-28.4-79.74c2.33,1.77,1.23,10.24,7.38,9.15,4.23-.69,10-5.6,7.51-12.29-1.78-4.64-4-10.24-11.06-7C156.32,307,152.09,308.52,156.18,315.62Zm64.31,57.75c4.51,2.6,9.83,5.19,14.34,3.69s8.47-7.24,7.1-12.15c-1.23-4.23-7.37-5.87-11.61-4.23C225.14,362.59,222.41,367.64,220.49,373.37Zm90.12-93.66c-1.09-1.64-.41-4.23-2.87-4.37a4.08,4.08,0,0,0-2.87,1.77c-2.73,7.65-5.59,15.16-7.64,22.94-.82,3.28,3.14,4.78,5.46,6.42,1.78,1.23,3,0,3.28-1.5,1.91-8.47,4.91-16.66,4.64-25.26ZM213.67,371.6c3.55-4,7.92-7.92,6.82-13.24-.82-4-5.18-6.56-9.55-6.7-2.32-.13-10.65,11.75-9.56,13.39,2.59,4.5,7.78,4.91,12.29,6.55ZM107.44,280.12c13.11-1.64,15-4,14.47-16.11-.13-2.73,1.1-6.56-3.68-6.69-3.69-.14-6.42,1.23-7.24,5.19-1.23,5.73-2.32,11.6-3.55,17.61Zm87.93,80.69c2.46-.54,9.29-13,8.19-14.88a11.82,11.82,0,0,0-8.6-5.87c-2.18-.27-10.92,11.6-9.83,13a26,26,0,0,0,10.24,7.78ZM223.91,122c-8.47-4.51-16.93-6.56-25.4-8.47a5.92,5.92,0,0,0-6.42,2.19,2.74,2.74,0,0,0-.13,2.32c3,6,24.85,9.15,31.95,4ZM236.33,249.4c2.73-1,9-14.34,7.65-16.25-1.78-2.59-3.55-6-7.78-4.92-4.51,1.23-10.24,10-8.47,13.25,2.05,3.68,4.78,6.69,8.6,7.92Zm-29.9,155.24c-4.64-3.82-10-6.14-15.16-4.91a10.11,10.11,0,0,0-7.1,9.28c-.13,2.19,13.25,7.24,15.3,5.74a18.93,18.93,0,0,0,7-10.11Zm21.85,5.05c-2.73-3.68-7.1-2-10.65-2.73-6.69-1.23-9.56,4.78-10.65,8.74-1.23,4.37,5.05,3.14,7.92,4.51a10.09,10.09,0,0,0,4.5.68c3.82-.14,10-7.92,8.88-11.2ZM230.19,208c-13.11,7-15,11.47-9.56,21.16,1.37,2.46,2.73,4.64,4.92,1.23,4.64-6.69,10.78-13.38,4.64-22.39Zm-71.82,59.8c-2.19-6.83-4.1-10.92-9.7-8.33-8.6,4-3,11.61-3.95,17.48-.41,2.87,2,3.55,4.23,2.18,5.05-3.27,11.19-6,9.42-11.33Zm106.09,110.6c12.42,1.5,18-3.28,19.52-15,.55-3.83-.54-4.37-3.82-3.28C271.42,363.27,267.33,370.1,264.46,378.43ZM148.54,296.91c1.36,1.1-.27,7.24,5.32,4.51,4.65-2.32,8.74-5.46,6.56-12-1.37-4.09-2.6-7.51-8.06-5.73-6.83,2.18-5.87,7.1-3.82,13.24ZM251.9,365.46c-3.55,3.68-9,7.5-7.92,12.28.82,3.83,7.64,2.6,11.47,1.78a9.69,9.69,0,0,0,7.1-11.2c-1-4.37-6.69-1.36-10.65-2.86Zm7.1-123c-2.32-2-5.46-4.91-7.1-2.73-3.42,4.24-9.56,7.92-8.74,13.79.55,3.55,7.24,5.6,9.69,3.83C257.36,254.31,256.68,247.49,259,242.43ZM377.92,123.37c2.32-4,5.05-8.19,7.38-12.7.95-1.77-1.1-2.45-2.46-3-3.55-1.64-7.51-1.77-9.7,1.78s-4.64,7.37-2,11.74c1.22,2,3.41,3,6.82,2.18Zm-126,299c7.64-4.09,14.88-2.32,19.25-8.19,1.37-1.91,3.14-4.1,2.05-6.55-1.37-2.74-4.23-1.64-6.42-1.23-7.78,1.23-11.88,6.28-14.88,16Zm-21.85-.27c4.1,0,7.37-.14,10.65-.14,6,0,6.69-5.19,8.88-9a2.12,2.12,0,0,0-.41-2.87,2.34,2.34,0,0,0-1.37-.41c-4.09-.13-8.6-1.77-11.88,2.19-2.59,2.87-5.19,5.32-5.87,10.24ZM152.91,236c-5.6,1.77-9.15,9.55-7.38,15.29.82,2.59,2.19,2.18,4.1,1.64,5.33-1.64,10.51-10.38,9-15C157.55,234.79,155.37,234.79,152.91,236Zm120.7,13.92c-2.73-1.09,0-6.41-4.92-5.87-2.32.28-9.56,12.7-8.33,14.2,2.87,3.55,7.24,2.73,10.79,1.78C277.29,258.55,273.47,253.9,273.61,249.94Zm57.48-78.64c1,2.46.55,5.19,3.28,5.32s3.55-2.05,4.09-4.09a109.29,109.29,0,0,0,1.91-11.47c.28-2.46,1.92-5.87-2.59-6-3.41-.14-6.69.55-6.69,5.19.14,4,0,7.78,0,11.06ZM243.43,296.09c-2.46-3.55-6.14-6.14-10.24-5.32-3.68.82-6,5.6-4.91,8.46,1.91,4.78,7.78,5.74,12.15,5.33C243.57,304.29,243.43,299.64,243.43,296.09Zm-62.12-54.75c1.09,1.64.95,6,4.09,4.23,6.56-4,6-10.51,4.37-16.93-.41-1.63-.41-5.18-3.68-3.68-7.65,3.55-6.15,10-4.78,16.38Zm33.31,39.32c-2.73,2.6-5.32,5.6-3.68,8.74,2.18,4,6.28,7.79,10.65,7,2.86-.55,4.37-6,3-9.56C223,282.58,219,281.07,214.62,280.66ZM277.7,414.47c7.38-2.45,14.34-3.41,17.62-10.78.68-1.64,1.91-3.55.54-5.19s-3.27-.14-4.91.27c-7.65,2.05-10.93,7.78-13.25,15.7Zm-71-283.72c-5.18-2.19-10.51-4.37-16.11-3.55-2.46.27-4.09,3.82-2.05,5.59,3.55,3.14,7.65,7.38,13.25,4.92C204.11,136.75,207.11,134.84,206.7,130.75ZM395.81,249.94c1.5-9.42,3.41-16.93-3.14-23.21A5.55,5.55,0,0,0,389,225c-1.91.41-1.09,2.45-1.09,3.82a28,28,0,0,0,7.92,21.16Zm-186.65,22.4c-2.87-1.64-1.91-8.06-7-6.56a7.79,7.79,0,0,0-5,9.56c1.09,3.28,4,8.19,7.64,7.37S209.43,276.71,209.16,272.34ZM268.69,129c-3,1.37-6,1.78-6.28,4.64-.41,3.69,3.14,3,5.19,3.42,5,.82,10.1,1.36,15.16,1.91a4.31,4.31,0,0,0,4.5-2.19,2.25,2.25,0,0,0-.82-2.18c-6.14-1.78-11.74-5.6-17.75-5.6ZM115.22,251.31c9.15-2.73,12.7-10.92,11.75-26.63C121.78,234.11,117,241.34,115.22,251.31Zm270.35-50.93c4.37-8.33,7.37-15.16,4.37-23.35-.68-1.77-1.78-3.41-3.82-3.27-.69,0-1.78,1.63-1.92,2.73-.41,7.23-4.09,14.61,1.37,23.89Zm-237.44,30c10.79-2.19,12.7-9.15,12.29-18.16-12,.68-9.7,10.51-12.29,18.16Zm216.28,50.52c-9.15,7.37-12.16,17.61-8.61,28,6.42-8.06,7.1-17.34,8.61-28Zm-16.12,19.39c-.27-2.73-1.09-4.1-3.55-3.42-3.55,1-7.78,11.06-6.69,15.7.69,3,3.14,2.74,4.92,2.19,8.6-2.73,2.46-10.51,5.32-14.47Zm-25.94,80.28c-9.69,5.05-16.11,10.38-17.88,19.8,6.69-5.19,16.11-7.92,17.88-19.8ZM192.37,249c-5.05,2-6.15,7-3.55,12.29.82,1.91,1.5,5.87,4.5,4,3.83-2.6,5.87-7,3.69-11.75-1.09-2.18-2.19-5.32-4.64-4.5Zm-22.8-63.9c-9,3.41-9.43,12-13.39,20.21C168.61,202.56,165.47,191.51,169.57,185.09ZM181,202c10-1.23,8.47-9.29,9.7-15.16.68-3.27-2.19-2.59-4.23-1.36-7.1,3.82-4.78,10.37-5.47,16.52Zm172.73,25.26c3.14-4.78,6.69-8.74,3.82-14.47-.82-1.64-1.78-4.78-4.37-2.6s-4.92,5.87-3.41,9.42,3.14-2.73,5.18-.82c.28,2.87-2.86,4.78-1.22,8.47Zm-121.93-72.5c-6.69,4.78-9.83,11.6-11.75,19.93C230.6,171.43,228.55,161.6,231.83,154.78ZM394,258.41c-1.5-1.78-3.14-5.05-4.64-3.69a11.48,11.48,0,0,0-3.41,12c.54,1.77,1.36,5.32,3.69,3.41,3.68-2.73,4.23-7.51,4.36-11.74Zm-64,54.34c3.27-3.28,1.91-7.92,1.77-12.15,0-1.78-1.36-4-3.55-2.73-4.78,2.87-3.14,8.05-3.55,12.29C324.54,313,327,313.16,330,312.75Zm49.56-40.28c-2.18,2.32-6,4-3.14,8.06,1.37,1.91,1.23,6.42,4.92,4.5,2.73-1.36,5.32-4.5,3.82-8.19-.82-2.18-1.91-5-5.6-4.37ZM258.45,303.06c-.68-3.83-3.68-4.1-6.28-4-4.23.27-4.1,4-4,6.69,0,4.37,4.23,3.82,6.69,3.68,4.51-.13,2.6-4.36,3.55-6.41Zm61.44-4.78c-.68-2.19-2-3.69-3.41-2.46-4,3.41-4.23,8.47-4.64,13.11a2.44,2.44,0,0,0,2.46,2.73,5,5,0,0,0,1.36-.27c5.46-3.28,2.6-9.15,4.23-13.11ZM182.26,220.59c4.1-2.6,7.38-5.33,6.83-10.65-.27-2.46-1.77-3-3.69-2.05-4.37,2.18-6.82,5.6-6,10.65C179.53,220.45,180.49,221.13,182.26,220.59Zm88.07,89.16c4.1-.41,5.33-2.87,4.78-5.6-.68-4.23-4.51-3.28-7.1-3-4,.41-4.37,4.09-3.82,6.82.95,3.69,4.37,1.78,6.14,1.78ZM185.54,179.22c10.38-2.32,10.1-8.88,10.1-15.3-5.46,3.14-7.23,8.47-10.1,15.3ZM367.14,301c10.92-8.06,11.19-9.15,3.41-15.7-1,4.78-2.05,9.42-3.41,15.7Zm-42.6-95.58c6.55-1.5,8.33,3.14,12.42,2.87,0-3.55-.14-8.06-3.14-9.42C330.27,197.38,329.32,202.29,324.54,205.43Zm10,142.68c4.51-3.95,8.47-7,8.33-12.28,0-1.64-2.46-1.64-3.68-1.1-5.33,2.6-4.24,7.51-4.65,13.38Zm40.83-170.4c2.73-1.5,3-4.23,2.73-7a4.16,4.16,0,0,0-4.64-3.55,2,2,0,0,0-.82.27c-3.42,1-2.05,4.65-2.05,7.1.14,1.92,2.05,3.55,4.78,3.14Zm-12.15-3.41c2.59-1.64,2.32-4.5,2.45-7.24a4.26,4.26,0,0,0-3.82-4.64h-.68c-3.55.55-2.46,4.24-2.32,6.69s1.09,4.92,4.37,5.19Zm-13.11-5.87c3.69-1.23,2.87-4.64,3-7.37s-2.32-3.55-4.37-3c-3.41.82-2.45,4.37-2.73,6.69s1.23,4,4.1,3.69Z" transform="translate(-0.76 -0.58)"/></g></svg>