<?xml version="1.0" encoding="utf-8"?>
<!-- Generator: Adobe Illustrator 24.0.1, SVG Export Plug-In . SVG Version: 6.00 Build 0)  -->
<svg version="1.1" id="BRAVE_FOREST" xmlns="http://www.w3.org/2000/svg" xmlns:xlink="http://www.w3.org/1999/xlink" x="0px"
	 y="0px" viewBox="0 0 417.7 485.8" style="enable-background:new 0 0 417.7 485.8;" xml:space="preserve">
<style type="text/css">
	.st0{fill:#D15D59;}
</style>
<title>morganmurray-digitaldesign</title>
<path class="st0" d="M144.3,379.5c1.3,0.4,2,1.1,2,2c0,2-0.3,3.9-0.8,5.8l-9.6,35.9c-0.8,3-1.4,5.1-1.8,6.4l-1.2,3.6
	c-0.5,1.6-1.1,3.4-1.9,5.3c-0.8,1.9-1.9,3.1-3.5,3.4l-1.1-0.2c-0.7,0.2-1.4-0.2-1.5-0.9c0,0,0-0.1,0-0.1c-0.1-1.2-0.1-2.5,0.2-3.7
	l1.9-7.5c0.7-2.8,1.1-4.3,1.1-4.5l10.3-38.4c0.9-2.7,2.7-5,5-6.7L144.3,379.5z"/>
<path class="st0" d="M179.8,374.5l3.9-0.6c3.5-0.6,6.2-0.1,8.1,1.4c2.1,1.9,2.9,4,2.4,6.4c-0.5,1.5-1.5,2.7-2.9,3.4
	c-0.4,0.2-0.8,0.4-1.2,0.5c-0.2,0-0.4,0-0.5,0c-1.4-0.4-2.8-1-4.1-1.8c-1.1-0.5-2.3-0.7-3.5-0.7l-4.3,0.7c-2.6,0.4-5.5,1.9-8.8,4.5
	c-1.5,1.4-2.9,2.9-4.1,4.5c-0.2,0.4-0.9,1.3-1.9,2.8c-2.3,3.5-3.7,6-4,7.2l-1.2,4.4c-0.9,3.3-1.6,6.2-2.1,8.7
	c-1.1,5.5,0.3,8.8,4.2,9.7c1.9,0.6,3.8,0.9,5.7,1l6-1c1-0.2,3.4-1.8,7.5-4.8c1.2-0.6,2-1.7,2.4-3c0.2,0,0.8-1.4,1.7-4l1.9-7
	l-1.7,0.3c-4.3,0.7-7.1,0.6-8.4-0.2c-0.9-0.5-1.1-1.5-0.8-2.8l0-0.2c0.8-1.8,2.2-3.3,4-4.2l3.2-0.9c2.3-0.6,4.5-1.1,6.3-1.4
	c2-0.4,4.1,0,5.9,1.1c0.6,0.4,0.4,2.4-0.4,5.9l-2.7,9.7c-0.8,2.5-1.9,5-3.3,7.2c-2.5,3.8-4.9,6.6-7.4,8.2c-4.7,3.2-8,4.9-9.9,5.2
	l-6.3,1.1c-1.6,0.3-3.2,0.3-4.8,0c-1,0.2-2.9-0.3-5.5-1.4c-1.4-1-2.7-2.1-3.9-3.4c-1.4-1.9-2.1-4.7-2.2-8.4c0.2-2,0.3-3.2,0.3-3.4
	l0.1-1.3c-0.1-0.5,0.5-3.5,2-9l1.8-6.6c1.4-3.5,3.2-6.8,5.4-9.9c3.2-4.8,5.7-7.9,7.7-9.3c0.7-0.5,1.3-1.1,1.8-1.8
	c1.5-0.9,2.8-1.9,4.1-3C173.2,376.6,176.4,375.2,179.8,374.5z M183.8,404.3h0.1c1.8-0.3,2.7,0.8,2.7,3.3l-0.2,0.9
	c-0.5,1.7-1.5,3.2-3,4.3c0.8-2.9-0.2-4.6-3-5.2l-0.7,0.1l0-0.2C181,405.6,182.3,404.5,183.8,404.3L183.8,404.3z M185.4,405.8
	c0.9-0.1,1.2,0.5,1.1,1.9c-0.7,1.4-1.4,2.2-2.2,2.3l0.1-0.5c0.3-1.6-0.1-2.3-1.2-2.1C183.6,406.6,184.4,406,185.4,405.8L185.4,405.8
	z"/>
<path class="st0" d="M217.6,367.2c1.3,0.4,2,1.1,2,2c0,2-0.3,3.9-0.8,5.8l-9.6,35.9c-0.8,3-1.4,5.1-1.8,6.4l-1.2,3.5
	c-0.5,1.6-1.1,3.4-1.9,5.3c-0.8,2-2,3.1-3.5,3.4l-1.1-0.2c-0.7,0.2-1.4-0.2-1.5-0.9c0,0,0-0.1,0-0.1c-0.1-1.2-0.1-2.5,0.2-3.7
	l1.9-7.5c0.7-2.8,1.1-4.3,1.1-4.5l10.3-38.4c1-2.7,2.7-5,5-6.7L217.6,367.2z"/>
<path class="st0" d="M232.6,365.8l24-4c2.2-0.3,3.5-0.1,4,0.8c0.7,0.4,1,1.2,0.9,2l-0.5,2c-0.5,1.2-1.4,2.1-2.6,2.6
	c-0.8,0.4-1.7,0.8-2.6,1l-8.3,2l-0.8,2.8c-0.9,4-1.4,6.2-1.5,6.6l-10,36.3c-0.6,2.2-2,4.1-3.9,5.4c-0.3,0.2-0.6,0.3-1,0.3h-0.1
	c-1.3-0.1-2-1-2.1-2.8c0.1-1.1,0.3-2,0.5-2.8l8.3-33.5c1.2-5.1,1.9-7.9,2-8.5l0.7-2.6l-9.5,1H230c-1.6,0.3-2.5-0.6-2.7-2.6
	c-0.1-0.3,0-0.6,0-0.8c0.2-0.5,0.4-1,0.6-1.5C228.7,367.5,230.5,366.1,232.6,365.8z M239.7,369.8h0.1c1.8-0.3,2.7,0.8,2.7,3.3
	l-0.2,0.9c-0.6,2-1.9,3.7-3.7,4.9h-0.3l0.2-0.7c0.6-2.1,0-3.4-1.6-4c-0.7-0.2-1.3-0.2-2,0C236.4,371.6,238,370.1,239.7,369.8z
	 M239.8,371.6c0.9-0.1,1.2,0.5,1.1,2c-0.7,1.3-1.2,2-1.6,2.1h-0.1c0.4-1.6-0.1-2.3-1.5-2l0.1-0.3
	C238.2,372.5,238.9,371.9,239.8,371.6z M250.5,368c1.6-0.3,2.6,0.6,3,2.6l0,0.2h-0.1c-0.1,0-0.1-0.1-0.1-0.1c-0.5,0.3-1,0.5-1.5,0.6
	V371c-2.5,0.8-4.5,2.9-5.2,5.5l-0.2,0.9c-1.1-0.8-1.5-2-1-3.8v-0.2C246,370.9,248,368.9,250.5,368z M248.6,370.5
	c0.9,0.2,1.3,0.6,1.2,1.1c-1.4,0.3-2.4,1.4-2.6,2.7l-0.1,0.4h-0.3c-0.6-0.4-0.9-1.2-0.6-1.9C246.6,371.7,247.5,370.8,248.6,370.5
	L248.6,370.5z"/>
<path class="st0" d="M266.3,402.3l-0.2,0.3l-0.6,0c-1.1,0.5-1.8,1.1-2,1.8h-0.1c0,0-0.1,0-0.1-0.1c-1.1,1.6-2.5,3.8-4.3,6.6
	c-0.9,1.4-2.2,3.6-3.9,6.4c-1,1.6-2.2,3-3.5,4.3c-0.5,0.4-1.1,0.7-1.8,0.8c-0.2,0-0.3,0-0.5,0l-1.3-0.1c-0.8-0.2-1.1-1.1-0.8-2.6
	c0.1-0.6,0.2-1.1,0.4-1.7l0.2-0.9c0.9-2.3,2.1-4.4,3.5-6.4c1-1.9,2.4-4,3.9-6.5c1.3-2.1,2.3-3.7,2.9-4.9s1.9-3.4,3.5-6.6
	c0.4-0.2,1.3-1.8,2.7-4.9c1.2-1.8,2.3-3.8,3.2-5.8c0.5-0.8,1.6-2.5,3.2-5.3c0.4-0.7,1.2-1.9,2.3-3.6s2.4-4,4-6.6l5.9-8.7
	c0.2-0.5,1.3-1,3.4-1.5c2.1-0.4,3.4-0.3,4,0.1c0.7,2.6,1.3,5.2,1.7,7.8l0.8,8.4c0,1.1,0,2.4,0.1,4c0.1,1.1,0.1,2.2,0.2,3.3
	c0.3,2.1,0.4,4.3,0.3,6.5c0,0.9,0,1.6,0.1,2.2c0.1,0.8,0.2,3.2,0.2,7.4c0.4,2.5,0.7,5,0.8,7.5c0.2,1.6,0.2,3.2-0.2,4.8l-0.3,1.8
	c-0.5,1.3-1.3,2.5-2.2,3.6c-0.7,0.3-1.4,0.5-2.1,0.7l-1.2,0.2c-1-0.1-1.6-1.1-1.8-3.1c-0.4-2.2-0.6-4.3-0.6-6.5
	c-0.1-1-0.2-2.1-0.5-3.1c0-0.2-0.1-0.5-0.1-0.7h-0.1l0.1-0.3c-0.1-0.3-0.2-0.7-0.4-1.1c-0.3-0.2-0.6-0.4-0.9-0.5l0-0.2
	c-1,0.1-2.1,0.3-3.5,0.5C277.2,400.2,272.4,401.1,266.3,402.3z M265.9,399.6c1.5-0.3,2.4,0.6,2.8,2.5v0.2l-0.8,0.1
	c-2.7,0.5-5,2.4-6.8,5.9h-0.1c-0.4-1-0.5-2.2-0.2-3.2l0-0.2c0.6-2.3,2.3-4.2,4.5-5.1L265.9,399.6z M273.7,385.7l-0.2,0.4l-0.3,1
	c-0.6,2.3,0.1,3.6,2,4.1l0.7-0.1l-0.1,0.4c-1.5,2.2-2.9,3.4-4.5,3.7h-0.1c-1.8,0.3-2.7-0.8-2.7-3.3l0.2-0.9c0.6-2.3,2.3-4.2,4.4-5.2
	L273.7,385.7z M281.3,371.2c-0.5,0.9-1,1.7-1.6,2.7c-0.8,1.3-1.5,2.7-2.2,4.1c-0.3,0.5-1.3,2.3-2.9,5.2c-0.5,0.7-1.3,2.2-2.4,4.3
	c-0.5,0.9-1,1.7-1.4,2.4c0.2,0.6,0.3,1.1,0.3,1.7l0.6,0.2l0,0c4.3-0.8,8-1.5,11.2-2l0,0c1-0.5,1.6-1.4,1.9-2.4l0.1-0.3
	c0-1-0.1-2.1-0.2-3.2c0-0.4-0.1-1-0.1-1.9c0-0.7,0-2,0-3.8c-0.1-0.7-0.2-2.8-0.4-6.3c0-0.3-0.1-0.6-0.1-1.1c0,0,0,0.1-0.1,0.1h-0.3
	c-0.3-0.3-0.6-0.4-1-0.3c-0.5,0.2-1,0.5-1.4,0.9C281.4,371.4,281.4,371.3,281.3,371.2z M284.2,366.1c1.8-0.3,2.7,0.8,2.7,3.3
	l-0.2,0.9c-0.2,1.1-0.8,2.1-1.6,2.9c0.2,0.8,0.2,1.6-0.1,2.3l-0.2,0.7l-0.4,0.9h-0.1c0-1-0.9-1.8-2-1.8c-0.2,0-0.4,0-0.5,0.1h-0.1
	c-1.6,0.3-3.1,1.6-4.5,3.9c-0.4-0.2-0.4-1-0.1-2.3l0-0.2c0.4-1.2,0.9-2.2,1.7-3.2l0-0.2c-0.3,0-0.3-0.6,0.1-1.8v-0.2
	c0.6-2.3,2.3-4.2,4.5-5.1L284.2,366.1z M284.6,384.3h0.3c1.8-0.3,2.7,0.8,2.7,3.3l-0.2,0.9c-0.6,2.3-2.3,4.2-4.5,5.1l-0.7,0.1
	c-1.8,0.3-2.7-0.8-2.7-3.3c1.6-0.3,3.2-1.7,4.6-4.4L284.6,384.3z M286.7,394.6c1.8-0.3,2.7,0.8,2.7,3.3l-0.2,0.9
	c-0.5,1.8-1.7,3.4-3.2,4.5h-0.3c-0.2-2.8-1.2-4-3-3.7l-0.3,0.2l-0.3,0c-0.1,0-0.1,0-0.1-0.1l-0.3,0.2h-0.1c0.6-2.3,2.3-4.2,4.5-5.1
	L286.7,394.6z"/>
<path class="st0" d="M321.9,350.6c2.6,0.1,3.5,1.5,2.8,4.1l-1.1,4.1c-0.9,2-1.6,4-2.3,6c-0.7,3.1-1.4,5.6-1.9,7.6l-7.8,28.9l5.5-0.9
	c9.9-1.7,14.7-2.2,14.6-1.7c1.1,0.8,1.4,2.1,0.9,3.8l0,0.2c-0.6,2.2-2,4-4,5c-0.1,0.1-0.3,0.2-0.5,0.2c-6.7,1-12,1.9-16,2.5
	l-3.4,0.6c-1.1,0.2-2.5,0.5-4.2,0.9c-1.9-0.6-2.6-2.1-2-4.3c0-0.1,0.1-0.2,0.2-0.2c0,0,0,0,0,0c0.2-1.3,0.5-2.2,0.6-2.8l7.6-28.2
	c0.8-2.9,1.7-6.4,2.8-10.6l3.1-9.3c0.6-2.5,2.2-4.6,4.5-5.7C321.6,350.8,321.8,350.7,321.9,350.6z M313.7,394.8
	c-0.4,1.2-0.7,2-0.8,2.6c-0.4,1.2,0,2.6,1,3.4c0.5,0.2,1.1,0.3,1.7,0.2l0.6-0.1l0.8-0.3l-0.1,0.3c-1.5,2.2-2.9,3.4-4.5,3.7l-0.3,0
	c-1.8,0.3-2.7-0.8-2.7-3.3l0.2-0.9c0.6-1.7,1.6-3.3,2.8-4.6C312.7,395.5,313.1,395.1,313.7,394.8z"/>
<path class="st0" d="M107.3,338.7c1.5-0.9,2.8-2.2,3.8-3.8c1-1.6,1.9-3.1,2.9-4.7c0.9-1.5,2.1-2.7,3.4-3.8c1.5-1.1,3.4-1.5,5.2-1.3
	c0.9,1.9,1,4.2,0.1,6.2c-0.8,1.9-1.9,3.6-3.2,5.2c-1.3,1.6-2.6,3.3-3.8,5c-1.2,1.6-1.8,3.7-1.7,5.7c6.1,13.1,9.7,25.3,10.8,36.4
	c1.1,11-0.1,22-3.6,32.5c-1.5,4.4-3.5,8.6-6,12.5c-2.6,4.2-5.8,8.1-9.4,11.5c-3.9,3.7-8.2,6.8-12.8,9.4c-5,2.8-10.5,4.8-16.1,6
	c-2.2,0.4-4.5,0.5-6.7,0.3c-2.3-0.2-4.6,0.2-6.7,1.1c-2.7,1.4-5,3.2-7,5.5c-2.4,2.6-5,5.4-7.6,8.3c-2.7,2.9-5.5,5.6-8.5,8.1
	c-2.8,2.4-6.1,4.2-9.7,5.3c-2.3,0.5-4.7,0.4-6.9-0.4c-2.7-0.8-4.6-2-5.6-3.7c-0.8-1.6-0.9-3.4-0.4-5.2c0.6-2.1,1.4-4.2,2.5-6.1
	c1.2-2.1,2.6-4,4.2-5.8c1.3-1.6,2.9-3,4.5-4.2c2.8-1.9,5.9-3.5,9.1-4.6c3.4-1.2,6.6-2.2,9.4-2.9c2-0.4,4-0.7,6-0.7
	c1.9,0,3.8-0.5,5.5-1.4c1.3-0.8,2.5-1.8,3.5-3c1.2-1.5,2.3-3,3.3-4.6c1.1-1.7,2.1-3.5,3.1-5.3c1-1.8,1.8-3.5,2.5-5
	c1.6-3.4,2.9-6.9,4-10.5c1.2-3.8,2.5-7.5,3.9-11.2c1.9-5,4-10.1,6.2-15.4c2.2-5.3,4.4-10.7,6.6-16.1c2.2-5.4,4.2-10.8,6.1-16.1
	c1.9-5.4,3.5-10.5,4.9-15.5c-3.3-3.9-7.9-6.5-13-7.2c-5.7-0.9-11.4-0.6-17,0.8c-6.3,1.5-12.4,3.9-18.1,7.1
	c-5.9,3.3-11.5,7.2-16.6,11.7c-3.7,3.4-7,7.2-9.8,11.3c-2.8,4.1-5.2,8.5-7.2,13.1c-1.7,3.9-3,8.1-3.7,12.3c-0.6,3.9-0.4,6.9,0.7,9.2
	c0.8,1.9,2.2,3.5,3.9,4.7c1.7,1.1,3.6,2,5.5,2.6c2,0.6,4.1,1.1,6.2,1.4c2.1,0.3,4.2,0.6,6.1,1c2.5-0.8,4.8-1.9,7-3.3
	c1.9-1.3,3.6-2.7,5.1-4.4c1.4-1.6,2.7-3.2,3.9-5c1.1-1.7,2.3-3.5,3.5-5.2c1.7-2.3,3.3-4.7,4.7-7.2c1.5-2.4,2.7-5,3.6-7.6
	c0.9-2.6,1.4-5.4,1.3-8.1c-0.1-3-0.8-5.9-2.1-8.6c-2.5-0.8-4.6-0.5-6.2,0.7c-1.7,1.3-3.2,2.9-4.4,4.6c-1.3,1.8-2.5,3.7-3.8,5.5
	c-1,1.6-2.5,2.8-4.4,3.4c-1.1-1.7-1.6-3.7-1.1-5.7c0.4-2.3,1.3-4.5,2.6-6.5c1.5-2.2,3.2-4.2,5.3-5.8c2-1.7,4.2-3,6.7-3.8
	c2.2-0.8,4.5-0.9,6.8-0.4c2.4,0.7,4.4,2.4,5.6,4.6c0.7,1.3,1.2,2.8,1.5,4.2c0.4,1.9,0.7,3.8,0.8,5.7c0.1,2,0.1,4,0,6.1
	c-0.1,1.8-0.3,3.5-0.7,5.2c-0.5,2.2-1.3,4.4-2.3,6.4c-1.3,2.7-2.7,5.4-4.2,7.9c-1.6,2.7-3.3,5.3-5.2,7.9c-1.6,2.2-3.3,4.3-5.2,6.2
	c-5.4,5.3-10.8,8.6-16.3,9.7c-5.3,1.1-10.9,0.6-15.9-1.4c-6.8-2.6-11.6-6.2-14.3-11.1s-3.1-11-1.2-18.4c0.8-3.1,2-6.1,3.4-9
	c1.6-3.3,3.4-6.5,5.2-9.6c2.2-3.7,4.7-7.2,7.5-10.5c3.2-3.8,6.8-7.2,10.6-10.4c4.3-3.6,9-6.8,13.8-9.6C57.2,337.6,63,335,69,333
	c3.4-1.3,7-2,10.6-2c3.3,0,6.7,0.4,9.9,1.1c3.1,0.7,6.2,1.7,9.2,3C101.7,336.4,104.5,337.6,107.3,338.7z M27.1,476.4
	c2.3-0.8,4.5-1.8,6.6-3c2.2-1.2,4.3-2.6,6.2-4.2c1.9-1.5,3.6-3.1,5.2-4.9c1.4-1.5,2.7-3.3,3.6-5.2c-2.6,0.3-5.2,1-7.6,2
	c-2.6,1-5.1,2.4-7.4,4c-2.1,1.4-3.9,3.2-5.3,5.3C27.2,472.1,26.7,474.3,27.1,476.4z M109.6,424.3c2.8-5,4.9-10.3,6.1-15.9
	c1.3-5.8,1.9-11.6,1.8-17.5c-0.1-6-0.8-11.9-2.1-17.7c-1.3-5.6-3.1-11.1-5.5-16.4c-0.5-0.5-1.2-0.5-1.7-0.1c-3,9.9-6.7,19.5-11,28.8
	c-4.4,9.4-8.2,18.6-11.7,27.7c-1.2,3.2-2.2,6.3-3.2,9.4c-1,3.1-2.2,6.1-3.6,9.1c-0.7,1.4-1.5,2.8-2.4,4.1c-0.9,1.4-1.7,2.7-2.4,4.1
	c-0.7,1.4-1.3,2.8-1.9,4.3c-0.5,1.5-0.8,3.1-0.8,4.6c4.3-0.3,8.6-1.2,12.6-2.7c3.8-1.5,7.5-3.4,10.8-5.8
	C100.7,436.1,105.8,430.6,109.6,424.3z"/>
<path class="st0" d="M137.3,137.4c-1.5-0.9-2.1-0.1-2.8,0.3c-1.8,1.1-3.4,4.4-5.4,2.6c-2.6-2.3,1.2-3.4,2.2-5.1
	c0.5-0.9,0.7-1.6,0-2.3c-1.4-1.4-2.8-0.9-4.2,0c-1.1,0.8-2.5,1.5-3.5,0s0.4-2.2,1.4-3.1c3.6-3.4,3.6-5.7-2-6.1
	c-1.1-0.1-2.4-0.2-2.7-1.4s0.7-1.9,1.8-2.4c4.4-1.9,4.3-4,0.1-6.1c-1-0.5-2.3-0.9-2.2-2.1c0.1-1.8,1.7-1.5,3-1.8
	c4.4-1,5.5-2.8,1.3-5.7c-0.9-0.7-1.8-1.4-1.3-2.6c0.3-0.8,1.2-1.2,2-0.9c0.1,0,0.1,0.1,0.2,0.1c7.1,3.4,6-1.2,5.1-5.2
	c2-1.7,7.4,4.2,6.3-3.2c-0.1-0.9,1.2-0.9,2.1-0.9c12,0.7,23.9,2.4,34.9,7.7c12.9,6.2,24.4,3.9,35-5.4c11-9.7,23.8-11.1,37.4-6.7
	c7.9,2.6,14.7,4.1,22-2.4c6.9-6.1,15.9-5.3,23.2,0.4c3.6,2.8,7.5,3.6,11.6,4.2c13.1,2,18.6,14.2,11.3,25.3c-1.3,2-2,4.3-2,6.7
	c-0.4,9.8-1.8,19.3-5.3,28.6c-2.5,6.4-2.6,13.5-0.2,20c9.5,27.4,0.6,56-21.9,73.1c-1.5,1.2-2.6,2-2.6,4.1c0,1.3-0.2,3.1-1,3.7
	c-8.2,6.4-7.3,16.2-10,24.8c-7.4,23.3-24.8,37.3-46.2,46.4c-48.2,20.5-100-5-121.4-44.6c-20.6-38.1-15.7-74.7,8.4-109.6
	c6.4-9.3,13.9-17.9,22.2-25.6C135.6,141,137.6,140,137.3,137.4z M237.2,105.9c1.1-6.1-0.5-8.7-4.9-7.9c-3,0.3-5.4,2.6-5.9,5.5
	c-0.5,2.8,1.3,4.7,3.6,5.8c3.8,1.7,5.7-0.7,7.3-3.6L237.2,105.9z M310.4,101.5c-4.1,9.7-14.2,10-21.4,14.9c-1.5,1-3.4,0.3-5.1,0.1
	c-2.4-0.3-3.2-1.5-2.8-3.5c1.3-5.5-0.9-9.6-4.4-13.7c-3.3-3.9-1.9-7.4,2-10.1c1.6-0.9,3.3-1.7,5-2.3c-5.6-2.5-9-0.8-12.2,2.5
	c-3.4,3.5-2,6.8-0.1,10.3c0.9,1.6,2.8,3.8,0.2,5.1s-4-1-4.9-3.1c-0.5-1-0.9-2-1.2-3.1c-1-3.5-2.1-4.3-5.9-2.3
	c-11.2,5.9-19.7,15-28.9,23.2c-8.4,7.5-11.4,17.4-11.8,28.4c3.3-4.1,6.1-8.5,9-12.9c2.7-4.1,5.5-8.1,10-10.4
	c1.1-0.7,2.6-0.5,3.3,0.6c0,0.1,0.1,0.1,0.1,0.2c0.8,1.2,0,2.2-0.9,2.8c-7.7,5.2-11,13.7-15.9,21c-7.4,11-8.9,26.9-3.9,36
	c1.4-1.1,1.4-2.8,1.5-4.2c2-18.1,9.4-33.4,22.7-46c8.1-7.7,16.8-11.1,27.7-6.9s21.5,8.5,32.3,13.7c1.4-6.4,3.2-12.2,2.9-18.2
	c0-1.2,1.1-3.4-1.7-3.3c-1.6,0.1-3.4,0-3.5-2c-0.1-2.3,1.9-2.5,3.5-3.2C312.2,112.1,313.2,108.9,310.4,101.5L310.4,101.5z
	 M291.3,163.3c-2.7,5.3-5.1,10.6-7.9,15.5c-6.3,10.9-6.5,22.7-5,34.7c0.2,1.6,0.2,4,2.7,3.8c2.9-0.2,1.8-2.7,1.6-4.2
	c-1.7-14.2,3.1-26.6,10.7-38.1C296.3,170.4,297.7,166.8,291.3,163.3z M229.9,242.6c4.4,10.1,10,14,18.8,13.7c4-0.1,8,0.3,11.9,1.3
	c7.8,1.9,12.8-0.7,15.8-7.8C260.5,253.2,245.3,250.9,229.9,242.6z M253.4,93.9c-17.7-7.4-31.6-8-44.9,6.5c-1.6,1.8-6.1,2.4-4.1,5.5
	c2,2.9,5.6,1.1,8.4-0.4c2.4-1.2,4.6-2.6,6-5.1c0.3-0.6,0.7-1.1,1.1-1.7c5.4-7,10.3-8.1,18.6-5.1C243.1,95.4,247.9,99.5,253.4,93.9z
	 M222.8,222c-0.3-10,1.4-19.9,4.9-29.3c4.4-11.9,6.6-24.5,6.4-37.2C227.3,177.2,218.3,198.5,222.8,222z M99.3,257.7l-0.5,0.2
	c1.4,3.5,2.9,6.9,4.3,10.4c1.5,3.8,3.2,3.3,5.7,0.8c2.8-2.8,4.3-5.4,2.2-9.3c-1.6-2.9-2.6-6.1-3-9.4c-0.6-4.3-3.1-4.5-6.7-3.6
	c-3.4,0.9-5.1,2.1-3.5,5.9C98.4,254.3,98.9,256,99.3,257.7z M249.6,220.4c-1.4-5.4,1.6-8.6,5.6-9.1c10.5-1.6,14.7,6,17.5,15.4
	c4.4-11.6-2.9-21.4-14.5-21.6c-5.1-0.1-9.9,0.7-12.7,5.5C243,215.2,249.1,216.5,249.6,220.4L249.6,220.4z M229.4,223.6
	c3.6-1.7-0.8-7.8,4.5-7.6c4.1,0.2,4.2-2.3,4.7-4.9c1.1-4.9,0.1-9.7-1.5-14.3c-0.7-1.9-1.7-4.5-3.5-4.4c-2.8,0.2-2.1,3.3-2.5,5.3
	s-1,4.3-1.3,6.5C228.7,210.6,227.6,217,229.4,223.6L229.4,223.6z M272.6,206.3c0.8-12-2.4-22.2-11.7-30.2c-6.2-5.3-12.9-5.1-20-3.3
	c-2,0.5-3.9,1.7-2.9,4.3c1,2.4,3.2,1.8,4.5,0.7c5.4-4.3,10.4-1.3,14.9,1.1c6.5,3.4,13.7,13.5,11.4,18.6S270.1,203.8,272.6,206.3
	L272.6,206.3z M144.7,253.7c-2.2,2.9-8.4,3-6.7,7.5c1.6,4.2,4.8,8.5,9.6,10.2c1.8,0.6,6.7-8.2,5.5-10.3
	C151.2,257.9,149.4,254.2,144.7,253.7z M99.7,243.1c7.9-1.2,5.9-7.4,5.1-12.7c-0.3-2,0.9-5.8-3-5.2c-3.4,0.5-8,0.7-7.5,6.3
	c0.3,3.1,0.7,6.1,0.7,9.2C95.1,243.9,96.5,244.5,99.7,243.1L99.7,243.1z M122.4,281.1c-1.7-2.4-3.8-5.1-5.7-8
	c-1.7-2.5-3.4-2.4-5.4-0.5c-1.7,1.7-5.2,3.1-2.3,6.2c2,2.2,3,4.7,4.2,7.2c0.9,1.8,2,5.5,4.8,4S124.2,286.2,122.4,281.1L122.4,281.1z
	 M224.9,292.2c9,0.9,12.9-4.4,15.3-11.5c0.7-2,2.4-4.7,0.5-6.1c-2.3-1.7-5.5-0.3-7,1.7C229.9,281,226.1,285.9,224.9,292.2
	L224.9,292.2z M242.1,284.9c11.6-3.4,16.8-11.4,14.3-22.4C247.6,267,246,276,242.1,284.9L242.1,284.9z M182.2,153.5
	c0-4.2-2.1-3.9-4.8-2.5c-4.3,2.4-7.3,14.5-4.6,18.7c1.1,1.7,2,1.2,3,0.1C180.3,165.2,183.7,160.1,182.2,153.5z M136.2,296.1
	c-0.7-2.4-9.1-8.1-10.4-7.1c-2.1,1.6-5.5,2.5-5.2,6c0.2,2.6,8.5,8.8,10.3,7.7C133.5,301.2,136,299.3,136.2,296.1z M151.1,306.5
	c-3.1-2.8-6.3-6.3-10.5-5.7c-2.5,0.4-7.7,3-6.2,6c1.9,3.8,6.8,6.7,11.4,6.7C148.7,313.5,150.2,309.8,151.1,306.5z M130.3,248.1
	c1.7,1.3,0.9,7.5,5.4,6.7c3.1-0.5,7.3-4.1,5.5-9c-1.3-3.4-2.9-7.5-8.1-5.1C130.4,241.8,127.3,242.9,130.3,248.1z M177.4,290.4
	c3.3,1.9,7.2,3.8,10.5,2.7s6.2-5.3,5.2-8.9c-0.9-3.1-5.4-4.3-8.5-3.1C180.8,282.5,178.8,286.2,177.4,290.4z M243.4,221.8
	c-0.8-1.2-0.3-3.1-2.1-3.2c-0.9,0.1-1.6,0.6-2.1,1.3c-2,5.6-4.1,11.1-5.6,16.8c-0.6,2.4,2.3,3.5,4,4.7c1.3,0.9,2.2,0,2.4-1.1
	C241.4,234.1,243.6,228.1,243.4,221.8L243.4,221.8z M172.4,289.1c2.6-2.9,5.8-5.8,5-9.7c-0.6-2.9-3.8-4.8-7-4.9
	c-1.7-0.1-7.8,8.6-7,9.8C165.3,287.6,169.1,287.9,172.4,289.1L172.4,289.1z M94.6,222.1c9.6-1.2,11-2.9,10.6-11.8
	c-0.1-2,0.8-4.8-2.7-4.9c-2.7-0.1-4.7,0.9-5.3,3.8C96.3,213.4,95.5,217.7,94.6,222.1L94.6,222.1z M159,281.2c1.8-0.4,6.8-9.5,6-10.9
	c-1.3-2.3-3.6-3.9-6.3-4.3c-1.6-0.2-8,8.5-7.2,9.5C153.5,278,156.1,280,159,281.2L159,281.2z M179.9,106.3
	c-6.2-3.3-12.4-4.8-18.6-6.2c-1.7-0.5-3.6,0.1-4.7,1.6c-0.3,0.5-0.3,1.2-0.1,1.7C158.7,107.8,174.7,110.1,179.9,106.3L179.9,106.3z
	 M189,199.6c2-0.7,6.6-10.5,5.6-11.9c-1.3-1.9-2.6-4.4-5.7-3.6c-3.3,0.9-7.5,7.3-6.2,9.7C184.2,196.5,186.2,198.7,189,199.6
	L189,199.6z M167.1,313.3c-3.4-2.8-7.3-4.5-11.1-3.6c-3,0.9-5.1,3.7-5.2,6.8c-0.1,1.6,9.7,5.3,11.2,4.2
	C164.5,318.9,166.2,316.3,167.1,313.3L167.1,313.3z M183.1,317c-2-2.7-5.2-1.5-7.8-2c-4.9-0.9-7,3.5-7.8,6.4
	c-0.9,3.2,3.7,2.3,5.8,3.3c1,0.4,2.2,0.6,3.3,0.5C179.4,325.1,183.9,319.4,183.1,317L183.1,317z M184.5,169.3
	c-9.6,5.1-11,8.4-7,15.5c1,1.8,2,3.4,3.6,0.9C184.5,180.8,189,175.9,184.5,169.3L184.5,169.3z M131.9,213.1c-1.6-5-3-8-7.1-6.1
	c-6.3,2.9-2.2,8.5-2.9,12.8c-0.3,2.1,1.5,2.6,3.1,1.6C128.7,219,133.2,217,131.9,213.1L131.9,213.1z M209.6,294.1
	c9.1,1.1,13.2-2.4,14.3-11c0.4-2.8-0.4-3.2-2.8-2.4C214.7,283,211.7,288,209.6,294.1z M124.7,234.4c1,0.8-0.2,5.3,3.9,3.3
	c3.4-1.7,6.4-4,4.8-8.8c-1-3-1.9-5.5-5.9-4.2C122.5,226.3,123.2,229.9,124.7,234.4L124.7,234.4z M200.4,284.6
	c-2.6,2.7-6.6,5.5-5.8,9c0.6,2.8,5.6,1.9,8.4,1.3c3.6-0.9,5.9-4.5,5.2-8.2C207.5,283.5,203.3,285.7,200.4,284.6L200.4,284.6z
	 M205.6,194.5c-1.7-1.5-4-3.6-5.2-2c-2.5,3.1-7,5.8-6.4,10.1c0.4,2.6,5.3,4.1,7.1,2.8C204.4,203.2,203.9,198.2,205.6,194.5z
	 M292.7,107.3c1.7-2.9,3.7-6,5.4-9.3c0.7-1.3-0.8-1.8-1.8-2.2c-2.6-1.2-5.5-1.3-7.1,1.3s-3.4,5.4-1.5,8.6
	C288.6,107.2,290.2,107.9,292.7,107.3L292.7,107.3z M200.4,326.3c5.6-3,10.9-1.7,14.1-6c1-1.4,2.3-3,1.5-4.8c-1-2-3.1-1.2-4.7-0.9
	C205.6,315.5,202.6,319.2,200.4,326.3L200.4,326.3z M184.4,326.1c3,0,5.4-0.1,7.8-0.1c4.4,0,4.9-3.8,6.5-6.6
	c0.5-0.7,0.3-1.6-0.3-2.1c-0.3-0.2-0.6-0.3-1-0.3c-3-0.1-6.3-1.3-8.7,1.6C186.8,320.7,184.9,322.5,184.4,326.1L184.4,326.1z
	 M127.9,189.8c-4.1,1.3-6.7,7-5.4,11.2c0.6,1.9,1.6,1.6,3,1.2c3.9-1.2,7.7-7.6,6.6-11C131.3,188.9,129.7,188.9,127.9,189.8z
	 M216.3,200c-2-0.8,0-4.7-3.6-4.3c-1.7,0.2-7,9.3-6.1,10.4c2.1,2.6,5.3,2,7.9,1.3C219,206.3,216.2,202.9,216.3,200z M258.4,142.4
	c0.7,1.8,0.4,3.8,2.4,3.9c1.9,0.1,2.6-1.5,3-3c0.6-2.8,1.1-5.6,1.4-8.4c0.2-1.8,1.4-4.3-1.9-4.4c-2.5-0.1-4.9,0.4-4.9,3.8
	C258.5,137.2,258.4,140,258.4,142.4L258.4,142.4z M194.2,233.8c-1.8-2.6-4.5-4.5-7.5-3.9c-2.7,0.6-4.4,4.1-3.6,6.2
	c1.4,3.5,5.7,4.2,8.9,3.9C194.3,239.8,194.2,236.4,194.2,233.8z M148.7,193.7c0.8,1.2,0.7,4.4,3,3.1c4.8-2.9,4.4-7.7,3.2-12.4
	c-0.3-1.2-0.3-3.8-2.7-2.7C146.6,184.3,147.7,189,148.7,193.7L148.7,193.7z M173.1,222.5c-2,1.9-3.9,4.1-2.7,6.4
	c1.6,2.9,4.6,5.7,7.8,5.1c2.1-0.4,3.2-4.4,2.2-7C179.2,223.9,176.3,222.8,173.1,222.5z M219.3,320.5c5.4-1.8,10.5-2.5,12.9-7.9
	c0.5-1.2,1.4-2.6,0.4-3.8c-1-1.3-2.4-0.1-3.6,0.2C223.4,310.5,221,314.7,219.3,320.5L219.3,320.5z M167.3,112.7
	c-3.8-1.6-7.7-3.2-11.8-2.6c-1.8,0.2-3,2.8-1.5,4.1c2.6,2.3,5.6,5.4,9.7,3.6C165.4,117.1,167.6,115.7,167.3,112.7z M305.8,200
	c1.1-6.9,2.5-12.4-2.3-17c-0.7-0.8-1.7-1.2-2.7-1.3c-1.4,0.3-0.8,1.8-0.8,2.8C299.6,190.2,301.8,195.8,305.8,200L305.8,200z
	 M169.1,216.4c-2.1-1.2-1.4-5.9-5.1-4.8c-2.9,0.9-4.5,4-3.7,7c0.8,2.4,2.9,6,5.6,5.4S169.3,219.6,169.1,216.4z M212.7,111.4
	c-2.2,1-4.4,1.3-4.6,3.4c-0.3,2.7,2.3,2.2,3.8,2.5c3.7,0.6,7.4,1,11.1,1.4c1.3,0.2,2.7-0.4,3.3-1.6c0.1-0.6-0.1-1.2-0.6-1.6
	C221.2,114.2,217.1,111.4,212.7,111.4L212.7,111.4z M100.3,201c6.7-2,9.3-8,8.6-19.5C105.1,188.4,101.6,193.7,100.3,201z
	 M298.3,163.7c3.2-6.1,5.4-11.1,3.2-17.1c-0.5-1.3-1.3-2.5-2.8-2.4c-0.5,0-1.3,1.2-1.4,2C297,151.5,294.3,156.9,298.3,163.7
	L298.3,163.7z M124.4,185.7c7.9-1.6,9.3-6.7,9-13.3C124.6,172.9,126.3,180.1,124.4,185.7L124.4,185.7z M282.8,222.7
	c-6.7,5.4-8.9,12.9-6.3,20.5C281.2,237.3,281.7,230.5,282.8,222.7L282.8,222.7z M271,236.9c-0.2-2-0.8-3-2.6-2.5
	c-2.6,0.7-5.7,8.1-4.9,11.5c0.5,2.2,2.3,2,3.6,1.6C273.4,245.5,268.9,239.8,271,236.9L271,236.9z M252,295.7
	c-7.1,3.7-11.8,7.6-13.1,14.5C243.8,306.4,250.7,304.4,252,295.7L252,295.7z M156.8,199.3c-3.7,1.5-4.5,5.1-2.6,9
	c0.6,1.4,1.1,4.3,3.3,2.9c2.8-1.9,4.3-5.1,2.7-8.6C159.4,201,158.6,198.7,156.8,199.3L156.8,199.3z M140.1,152.5
	c-6.6,2.5-6.9,8.8-9.8,14.8C139.4,165.3,137.1,157.2,140.1,152.5z M148.5,164.9c7.3-0.9,6.2-6.8,7.1-11.1c0.5-2.4-1.6-1.9-3.1-1
	C147.3,155.6,149,160.4,148.5,164.9L148.5,164.9z M275,183.4c2.3-3.5,4.9-6.4,2.8-10.6c-0.6-1.2-1.3-3.5-3.2-1.9s-3.6,4.3-2.5,6.9
	s2.3-2,3.8-0.6C276.1,179.3,273.8,180.7,275,183.4L275,183.4z M185.7,130.3c-4.9,3.5-7.2,8.5-8.6,14.6
	C184.8,142.5,183.3,135.3,185.7,130.3z M304.5,206.2c-1.1-1.3-2.3-3.7-3.4-2.7c-2.5,2.2-3.5,5.7-2.5,8.8c0.4,1.3,1,3.9,2.7,2.5
	C304,212.8,304.4,209.3,304.5,206.2L304.5,206.2z M257.6,246c2.4-2.4,1.4-5.8,1.3-8.9c0-1.3-1-2.9-2.6-2c-3.5,2.1-2.3,5.9-2.6,9
	C253.6,246.2,255.4,246.3,257.6,246z M293.9,216.5c-1.6,1.7-4.4,2.9-2.3,5.9c1,1.4,0.9,4.7,3.6,3.3c2-1,3.9-3.3,2.8-6
	C297.4,218.1,296.6,216,293.9,216.5L293.9,216.5z M205.2,238.9c-0.5-2.8-2.7-3-4.6-2.9c-3.1,0.2-3,2.9-2.9,4.9
	c0,3.2,3.1,2.8,4.9,2.7C205.9,243.5,204.5,240.4,205.2,238.9L205.2,238.9z M250.2,235.4c-0.5-1.6-1.5-2.7-2.5-1.8
	c-2.9,2.5-3.1,6.2-3.4,9.6c-0.1,1.1,0.7,2,1.8,2c0.3,0,0.7-0.1,1-0.2C251.1,242.6,249,238.3,250.2,235.4L250.2,235.4z M149.4,178.5
	c3-1.9,5.4-3.9,5-7.8c-0.2-1.8-1.3-2.2-2.7-1.5c-3.2,1.6-5,4.1-4.4,7.8C147.4,178.4,148.1,178.9,149.4,178.5z M213.9,243.8
	c3-0.3,3.9-2.1,3.5-4.1c-0.5-3.1-3.3-2.4-5.2-2.2c-2.9,0.3-3.2,3-2.8,5C210.1,245.2,212.6,243.8,213.9,243.8L213.9,243.8z
	 M151.8,148.2c7.6-1.7,7.4-6.5,7.4-11.2C155.2,139.3,153.9,143.2,151.8,148.2L151.8,148.2z M284.8,237.4c8-5.9,8.2-6.7,2.5-11.5
	C286.6,229.4,285.8,232.8,284.8,237.4L284.8,237.4z M253.6,167.4c4.8-1.1,6.1,2.3,9.1,2.1c0-2.6-0.1-5.9-2.3-6.9
	C257.8,161.5,257.1,165.1,253.6,167.4z M260.9,271.9c3.3-2.9,6.2-5.1,6.1-9c0-1.2-1.8-1.2-2.7-0.8
	C260.4,264,261.2,267.6,260.9,271.9L260.9,271.9z M290.8,147.1c2-1.1,2.2-3.1,2-5.1c-0.2-1.6-1.7-2.8-3.4-2.6
	c-0.2,0-0.4,0.1-0.6,0.2c-2.5,0.7-1.5,3.4-1.5,5.2C287.4,146.2,288.8,147.4,290.8,147.1L290.8,147.1z M281.9,144.6
	c1.9-1.2,1.7-3.3,1.8-5.3c0.2-1.7-1.1-3.2-2.8-3.4c-0.2,0-0.3,0-0.5,0c-2.6,0.4-1.8,3.1-1.7,4.9S279.5,144.4,281.9,144.6
	L281.9,144.6z M272.3,140.3c2.7-0.9,2.1-3.4,2.2-5.4s-1.7-2.6-3.2-2.2c-2.5,0.6-1.8,3.2-2,4.9S270.2,140.5,272.3,140.3L272.3,140.3z
	"/>
<path class="st0" d="M308.4,225.5c6-0.5,11.7-1,17.4-1.4c6-0.4,8.8,3.7,10.5,8.5s-0.5,8.3-5.6,9.3c-6.8,1.3-12.6-1-17.6-5.6
	c-1.9-1.8-3.7-3.8-5.6-5.6c-0.9-0.9-2.4-1.5-1.9-3.1S307.4,225.9,308.4,225.5z"/>
<path class="st0" d="M280.7,290.6c-0.7-4.8-1.5-9.1-2-13.5c-0.2-1.6-1-3.6,1.5-4.4c1.9-0.6,3.4,0.1,4.7,1.5c3.1,3.2,6.2,6.3,9.3,9.4
	c3.8,3.8,4.4,7.9,1.9,12.6c-1.6,3-4.2,3.7-7.3,3.4C283.4,298.9,282.6,294.1,280.7,290.6z"/>
<path class="st0" d="M313.1,269.6c-3.2,1-6.7,0.4-9.5-1.6c-2.4-1.6-4.5-3.6-6.3-5.8c-2.4-3.1-8-6.6-5.2-10.1s8.7-1,13,0.3
	c2.4,0.7,4.6,2,7.2,2.6c3.3,0.8,5.9,3,5.9,7C318.2,265.8,316.8,268.4,313.1,269.6z"/>
<path class="st0" d="M237.3,105.6c-1.4,0.4-2.8,1.3-4.2,1.3c-1.7,0-3.5-0.8-3.5-3.1c-0.2-1.8,1-3.5,2.7-4c2-0.6,3.4,0.4,4,2.3
	c0.4,1.2,0.6,2.5,0.9,3.8L237.3,105.6z"/>
<path class="st0" d="M259.1,115.7c3-0.9,6.2-1,9.2-0.3c11.1,2.2,21.3,6.9,31.4,11.7c2.1,1,5.3,2.7,3.8,5.2c-1.9,3.1-3.9-0.6-5.9-1.4
	c-9.2-3.6-18.3-7.4-27.6-10.7c-3.2-1-6.7-0.9-9.8,0.4c-2.2,0.8-4.7,1.8-5.4-1.2S257.1,116.4,259.1,115.7z"/>
<g id="LINES_BACK">
	<path class="st0" d="M108.2,99.4c-12.5-2-24.8-0.3-37.5,0c-0.6,0-1.5,0.8-1.3,1.3c0.1,0.3,0.3,0.5,0.5,0.7c0.2,0.3,0.7-0.2,0.8-0.4
		c0.4-0.9,13.9-1,16.3-1.1c6.7-0.4,13.4-0.1,20.1,0.9C107.7,101,109,99.5,108.2,99.4z"/>
	<path class="st0" d="M102.1,115c-4.9-1-10,0.6-15.1,0.6c-6.2,0-12.7,1-18.9,1.5c-0.3,0-0.9,0.8-0.5,0.9c4.7,0.4,9.5,0.8,14.2-0.3
		c2.7-0.6,5.8-0.2,8.5-0.2c3.7-0.2,7.5-0.6,11.1-1.4C101.8,116,102.7,115.1,102.1,115z"/>
	<path class="st0" d="M103.2,128.7c-6.8-1.4-13.9,0.9-20.8,0.7c-2.8-0.1-6.4-0.8-8.3,1.6c-0.4,0.4,0,0.7,0.4,0.3
		c1.8-1.8,9.3-0.4,11.8-0.4c5.5,0,11-0.5,16.5-1.3C102.9,129.5,103.6,128.8,103.2,128.7z"/>
	<path class="st0" d="M86.9,145.1c-2.4-0.6-4.9-0.4-7.3-0.2c-3.1,0.2-6.2,0.3-9.3,0.2c-0.3,0-1,0.8-0.6,0.9
		c5.4,0.9,11.2,0.2,16.7-0.1C86.6,145.8,87.3,145.2,86.9,145.1z"/>
	<path class="st0" d="M86.4,162.3c-4.3-0.5-8.7-0.2-12.9,0.7c-5.5,1.2-11.2,0.6-16.8,1.3c-0.2,0-0.8,0.7-0.4,0.7
		c9.8,1.3,20.1-1.4,29.8-2.1C86.2,162.9,86.6,162.4,86.4,162.3z"/>
	<path class="st0" d="M69.6,176.4c-2-2.1-5.4-1.5-8-1.3c-5.6,0.4-11.2,0-16.7,1.3c-0.2,0.1-0.6,0.7-0.3,0.6
		c4.7-0.8,9.5-1.1,14.3-0.9c3.5,0,6.9-0.7,10.2,0.9C69.3,177.1,69.7,176.6,69.6,176.4z"/>
	<path class="st0" d="M58.2,192.8c-4.7-0.2-9.4-0.1-14.1,0.4c-3.7,0.5-7.4-0.2-10.7,1.8c-0.1,0.1-0.5,0.6-0.1,0.6
		c3.9-1,8-0.8,12-1.3c4.2-0.4,8.4-0.7,12.6-0.6C58.2,193.5,58.7,192.8,58.2,192.8z"/>
	<path class="st0" d="M59.4,208c-5.9-1.1-12.6,0.8-18.5,1c-0.4,0-1.1,1-0.5,1c6.2,0.2,12.4-0.1,18.5-1
		C59.1,208.9,59.9,208.1,59.4,208z"/>
	<path class="st0" d="M61.3,219.4c-2-0.3-4-0.4-6-0.4c-2.6,0-5.7,2-8.7,2c-5.4,0-10.6,0.9-16,1.4c-0.3,0-0.9,0.9-0.5,0.9
		c10.4,0.8,20.6-1.9,30.9-3.2C61.1,220.1,61.7,219.5,61.3,219.4z"/>
	<path class="st0" d="M61.4,236.1c-8.1-0.8-16.6,0.1-24.8,0.5c-0.2,0-0.8,0.5-0.5,0.6c7.9,1.9,16.7-1,24.9-0.5
		C61.3,236.8,61.8,236.2,61.4,236.1z"/>
	<path class="st0" d="M65.6,251.5c-12.4-1-23.8-1.4-36.1,0c-0.4,0-1.1,1.1-0.4,1.1c6.4-0.4,12.8-1.1,19.2-0.7
		c5.6,0.4,11.2,1.7,16.8,0.8C65.4,252.6,66.1,251.5,65.6,251.5z"/>
	<path class="st0" d="M70.7,263.3c-9-1.8-18.8-0.3-28-0.5c-2.2-0.1-6.7-0.6-7.5,2.2c-0.2,0.5,0.6,0,0.7-0.2c0.7-1.3,8.5,0,10.1,0
		c7.9,0.1,16.3,0.8,24.1-0.5C70.3,264.3,71.2,263.4,70.7,263.3z"/>
	<path class="st0" d="M72.7,273.7c-3-0.9-6.4-0.4-9.5-0.4c-4.3,0-8.7-0.1-13,0.2c-0.4,0.1-0.8,0.5-0.8,0.9c0,0.3,0.1,0.7,0.1,1
		c0,0.6,1-0.2,1-0.6v-0.1c2.9,0.2,5.8,0.1,8.7,0.1c4.3,0,8.9,0.5,13.1-0.4C72.4,274.4,73,273.8,72.7,273.7z"/>
	<path class="st0" d="M77.8,284c-4.6-1-9.4-0.4-14.1,0c-6,0.4-12,0.5-18,1c-0.4,0-1.3,1-0.6,1.1c10.3,0.9,21.5,0.1,31.9-0.8
		C77.3,285.2,78.4,284.1,77.8,284z"/>
	<path class="st0" d="M73.7,296.2c-3.2-0.9-8.9-1.3-11.6,1.1c-0.4,0.4-0.4,1.1,0.2,0.6c2.8-2.3,7.7-0.3,11-1
		C73.4,296.9,74,296.3,73.7,296.2z"/>
	<path class="st0" d="M74.9,310.1c-2.7-1.6-5.6-0.7-8.6-0.9c-3.1-0.1-6.1,0.2-9.1,1c-0.4,0.1-1.4,1.7-0.7,1.7c2.5,0,5-0.4,7.4-0.3
		c3.4,0.1,6.8-0.5,10.2-0.3C74.6,311.4,75.4,310.4,74.9,310.1z"/>
	<path class="st0" d="M359.4,291.6c-6.9-0.6-13.5-0.1-20.4,0.4c-7.5,0.6-15,2.1-22.5,2.4c-0.5,0-1.4,1.5-0.6,1.4
		c6.7-0.1,13.2-1.8,19.9-1.9c7.6-0.1,15.5-0.8,23.1-1.4C359.2,292.5,359.8,291.6,359.4,291.6z"/>
	<path class="st0" d="M363.8,278.4c-11.9-0.8-23.9,0.7-35.7,1.6c-0.5,0-1.7,1.6-1,1.6c12,0.7,24.2-1.5,36.2-2.5
		C363.6,279.2,364.2,278.4,363.8,278.4z"/>
	<path class="st0" d="M365,267.9c-4.5-0.4-9.4,0.5-13.9,0.7c-5.1,0.1-10.1,0.9-15,2.3c-0.4,0.1-1.3,1.6-0.5,1.4
		c9.4-2.1,19.2-1.4,28.7-3.2C364.6,269.1,365.6,268,365,267.9z"/>
	<path class="st0" d="M386.5,266.1c-3.9-1-8.2,0.2-12.2,0.6c-0.6,0-1.8,1.8-1,1.8c4.3,0.1,8.5-0.4,12.7-1.5
		C386.1,266.9,386.9,266.2,386.5,266.1z"/>
	<path class="st0" d="M366,256.4c-3-0.3-6.1,0.7-9.1,0.7c-1.4,0-2.8,0-4.2,0.1c-1.8,0-3.5,1-5.3,1.3c-0.3,0-1,1-0.5,1
		c2.7,0,5.2-0.7,8-0.7c3.5,0,7-0.4,10.4-1.3C365.6,257.4,366.5,256.4,366,256.4z"/>
	<path class="st0" d="M391.6,254.3c-2.3-0.4-4.7-0.5-7.1-0.4c-2.7,0-4.7,0.9-7.3,1.3c-0.4,0.1-1.2,1.2-0.6,1.2
		c2.1-0.2,3.9-0.8,6-0.8c2.8,0.1,5.6,0,8.4-0.4C391.2,255.3,392,254.5,391.6,254.3z"/>
	<path class="st0" d="M389.7,242c-6.7-0.2-13.3,0.4-19.9,1.8c-7.3,1.7-14.7,1.1-21.9,2.8c-0.5,0.1-1.7,1.6-0.7,1.5
		c14.3-0.8,28-3.8,42.2-5.6C389.6,242.5,390,242,389.7,242z"/>
	<path class="st0" d="M398.6,232.9c-6.4-0.4-12.7,0.3-19.1,0.9c-7.6,0.7-15.2,0.4-22.8,0.9c-0.4,0-1.3,1.3-0.8,1.3
		c14.4,0.9,28-1,42.3-2.4C398.4,233.5,398.8,232.9,398.6,232.9z"/>
	<path class="st0" d="M381.9,220c-5.4-0.3-10.7,1-16,1.5c-5.6,0.6-10.6,0-15.9,2.3c-0.5,0.2-1.3,1.8-0.4,1.4c5-2,10.1-1.8,15.4-2
		s11-1.7,16.4-2.4C381.7,220.8,382.3,220,381.9,220z"/>
	<path class="st0" d="M369.6,210.8c-3.7-0.8-7.6-1.1-11.4-0.9c-1.5,0-6.5,0.1-6.7,2.5c0,0.6,0.8-0.2,0.9-0.5
		c0.2-0.5,7.8-0.1,8.5-0.1c2.8,0.1,5.6,0,8.3-0.4C369.4,211.5,369.9,210.9,369.6,210.8z"/>
	<path class="st0" d="M389.3,208.6c-1-0.7-2.8-0.4-4-0.4c-2.1,0-4.3,0.1-6.4,0.4c-0.3,0-1.1,1-0.6,1c1.7,0.2,3.5,0.3,5.2,0.4
		c1.8,0.2,3.5,0.1,5.2-0.4C388.9,209.5,389.6,208.9,389.3,208.6z"/>
	<path class="st0" d="M366.6,200.5c-6-1.2-14-3.4-19.7-0.2c-0.5,0.3-1,1.7,0,1.1c5.7-3.1,13.2,0.3,19.3-0.2
		C366.4,201.2,366.9,200.6,366.6,200.5z"/>
	<path class="st0" d="M357.6,187.3c-6.7-1-13.8-0.4-20.5,0c-0.3,0-0.9,0.9-0.5,0.9c6.8,0.4,13.8,0.8,20.6,0
		C357.3,188.1,358,187.4,357.6,187.3z"/>
	<path class="st0" d="M353.6,175.9c-7.4-1.1-15.2,0.6-22.6,1c-0.3,0-1,1-0.6,1c7.6,0.3,15.2-0.1,22.7-1.1
		C353.2,176.7,354,175.9,353.6,175.9z"/>
	<path class="st0" d="M347.4,164.2c-4.6-1-9.6-0.4-14.3-0.2c-0.4,0-1,1-0.6,1c4.8,0.2,9.7,0.7,14.5-0.2
		C347.1,164.8,347.8,164.2,347.4,164.2z"/>
	<path class="st0" d="M343,151.8c-2.4-0.6-7.2-1.2-8.6,1.4c-0.2,0.4,0.3,0.2,0.4,0c0.8-1.2,3.2-0.9,4.4-0.8c1.2,0.1,2.3,0.1,3.5,0
		C342.8,152.4,343.3,151.9,343,151.8z"/>
	<path class="st0" d="M344.3,142c-2.7-0.4-5.5-0.4-8.2-0.2c-0.5,0-1.7,1.7-0.9,1.8c2.6,0.2,5.2,0.2,7.8-0.1c0,0.1-0.1,0.1-0.1,0.1
		c-0.2,0.3-0.1,0.6,0.2,0.3s0.7-0.5,1-0.8C344.2,143,344.8,142,344.3,142z"/>
	<path class="st0" d="M343.2,128.9c-0.9-0.7-1.7,0.4-2.7,0.5c-0.3,0.1-0.6,0.2-0.9,0.4c-0.7,0.1-1.3,0.1-2-0.1
		c-0.9-0.2-1.7-0.2-2.6-0.1c-0.3,0.1-1.2,1.3-0.8,1.7l0.3,0.4c0,0.2,0.2,0,0.3-0.1c1.3,0.4,2.7,0.6,4.1,0.5c1.4-0.2,2.6-1.2,3.9-2
		C342.9,129.8,343.5,129.1,343.2,128.9z"/>
	<path class="st0" d="M347.1,120.7c-2.6-0.7-5.5-0.4-8.1-0.3c-0.5,0.1-0.9,0.6-0.9,1.1c0.1,0.3,0.1,0.5,0.1,0.8
		c0,0.6,0.9-0.2,0.9-0.6l0,0c2.5,0.2,5.1,0.1,7.5-0.3C346.8,121.4,347.4,120.8,347.1,120.7z"/>
	<path class="st0" d="M339.1,107.4c-1.7-0.2-3.5-0.2-5.2,0c-0.2,0-0.6,0.6-0.4,0.6c1.7,0.2,3.5,0.2,5.2,0
		C338.9,107.9,339.4,107.4,339.1,107.4z"/>
	<path class="st0" d="M113.6,89c-7.1-1-14.2-0.4-21.4-0.3c-3.4,0.1-6.8,0-10.3-0.3c-1.3-0.1-2.8,0.9-4.3,0.8c-0.3,0-1,0.8-0.6,0.9
		c4,0.6,8.3,0.3,12.3,0.2c8-0.3,15.9-1.2,24-0.9C113.6,89.3,113.8,89,113.6,89z"/>
	<path class="st0" d="M128.2,86.8c-0.5-0.6-2.2-0.3-3-0.3c-1.5,0-2.9,0.1-4.4,0.2c-0.4,0-1.3,1.2-0.7,1.3c1.3,0.1,2.6,0.2,3.8,0.2
		c1.3,0.2,2.6,0.1,3.8-0.4C128,87.7,128.4,87.1,128.2,86.8z"/>
	<path class="st0" d="M155.2,74.5c-12.8-1.4-26.1,1.4-38.9,1.8c-0.5,0-1.4,1.3-0.6,1.3c13.1,0.1,26.1-0.7,39.1-2.3
		C154.9,75.3,155.5,74.6,155.2,74.5z"/>
	<path class="st0" d="M169.6,73.5c-0.6-0.6-2-0.5-2.9-0.5c-1.4,0-2.9,0-4.3,0c-0.6,0-1.7,1.7-1,1.7c1.2,0.1,2.3,0,3.5,0
		c1.4,0.1,2.8,0,4.1-0.5C169.3,74.2,169.9,73.8,169.6,73.5z"/>
	<path class="st0" d="M180.8,65.3c-5.3-0.5-10.9,0.5-16.2,0.5c-7.6,0-15.2,0-22.8,0.5c-0.3,0-0.8,0.8-0.5,0.8c13,1,26.1,1.1,39-1
		C180.6,66.1,181.2,65.3,180.8,65.3z"/>
	<path class="st0" d="M325.6,305.4c-4.4-0.3-8.7,0-13,1c-2.6,0.6-5.7,0.2-8.4,0.2c-3.1,0.1-6.2,0.4-9.2,0.8c-0.5,0-1.5,1.5-0.7,1.4
		c10.1-0.7,21-0.3,30.9-2.7C325.4,306.1,326,305.5,325.6,305.4z"/>
	<path class="st0" d="M371.5,291.3c-1.5,0-3.4,0-4.6,0.1c-0.4,0-1.4,1.3-0.8,1.4c1.2,0.1,2.5,0.2,3.7,0.1c1.2,0,2.9,0.3,3.8-0.7
		S371.8,291.3,371.5,291.3z"/>
	<path class="st0" d="M303.9,321c-2.3-0.8-5.1-0.4-7.5-0.4c-3.4,0-6.8,0-10.1,0.2c-0.4,0-1.3,1.2-0.8,1.3c2.5,0.1,5.1,0.1,7.6,0.1
		c3.3,0,7,0.5,10.2-0.3C303.6,321.9,304.4,321.2,303.9,321z"/>
</g>
<path class="st0" d="M165.7,452.8l7.2-1c1,0,2,0.1,2.9,0.4c1.2,0,2,0.3,2.2,0.8c0.8,1,1.4,2.2,1.5,3.5c0.3,0.7,0.4,1.4,0.2,2.1
	c0.1,1.1,0,2.2-0.2,3.2c-0.1,1.7-0.3,3.4-0.8,5.1l-1,3.4c-0.4,1.3-0.9,2.5-1.5,3.7c-0.6,1.2-1.3,2.3-2.1,3.4
	c-1.3,1.8-2.7,3.5-4.4,4.9c-0.8,0.7-1.7,1.2-2.8,1.4l-2.4,0.8c-0.3,0.1-0.5,0.1-0.8,0.2l-1.5,0.2c-1.8,0.2-3.4,0.4-4.9,0.5l-4,0.1
	c-0.3-0.5-0.4-1.1-0.1-1.7l2.3-8.5c0.3-1.1,0.6-2.1,0.8-2.8l2.4-8.2c0-0.2,0.4-1.3,1-3.3l1.2-3.8c0.4-1.6,1.2-3,2.5-4
	C164.2,453.1,165,452.9,165.7,452.8z M158.5,480.4h0.1c0.1,0.7,0.4,1,0.9,0.9c-0.2,0.6-0.7,1.1-1.3,1.2c-0.5,0.1-0.7-0.3-0.5-1.1
	C157.9,480.8,158.2,480.4,158.5,480.4L158.5,480.4z M159.2,477.9L159.2,477.9c-0.5,1.9-0.2,2.9,1,3l1-0.1c-0.5,0.8-1.2,1.3-2.1,1.5
	h-0.1c-1,0.1-1.5-0.5-1.4-1.8l0.1-0.5C157.9,479.1,158.4,478.4,159.2,477.9z M165.4,457.8l-1.9,4.9c-0.4,1.1-0.6,1.7-0.6,1.8
	l-2.5,8.1c-0.1,0.7-0.3,1.3-0.5,2l-1.6,6.7l7.6-1c1.2-0.4,2.3-1,3.3-1.9c0.6-0.6,1.1-1.3,1.5-2.1c0.6-0.6,1-1.3,1.4-2
	c0.5-0.9,0.9-1.8,1.2-2.7l1-3.4l0.6-3.6c0-0.5,0.1-1.3,0.2-2.3c-0.1-0.7-0.1-1.5,0-2.2c-0.1-0.8-0.4-1.6-0.8-2.3
	c-0.2-0.1-0.7-0.4-1.5-0.9c-0.5,0-0.9,0-1.4,0L165.4,457.8z M166.8,455.2c1-0.1,1.5,0.4,1.5,1.6c0,0.2,0,0.4-0.1,0.6
	c-0.4,0-0.6,0-0.6-0.1c-0.8,0.2-1.6,0.7-2.1,1.4c-0.4,0.4-0.7,0.9-0.9,1.4h-0.1c-0.7-0.4-0.9-1.1-0.6-2.1v-0.1
	C164.4,456.7,165.4,455.7,166.8,455.2L166.8,455.2z M165.8,456.8c0.5-0.1,0.7,0.3,0.6,1.1c-0.5,0.2-1,0.7-1.2,1.2
	c-0.7,0-0.9-0.3-0.7-1C164.7,457.4,165.1,456.9,165.8,456.8L165.8,456.8z"/>
<path class="st0" d="M195.7,449l7.4-0.8c2.3,0.1,3.6,0.5,3.9,1.2c0.1,0.3,0,0.7-0.1,1v0.1c-0.2,0.7-0.6,1.2-1.2,1.6
	c-0.6,0.4-1.3,0.6-2,0.7l-9.1,1.1c-1.2,0.3-1.8,0.5-1.8,0.7l-2.4,8l4.9-0.5c2.4-0.2,3.8-0.1,4.1,0.1c0.3,0.4,0.4,0.9,0.3,1.4
	l-0.2,0.5c-0.3,0.7-0.7,1.3-1.3,1.8l-1.2,0.4c-1.6,0.3-2.7,0.4-3.3,0.5l-4.9,0.7l-2.1,6.9c-0.1,0.6-0.2,1.3-0.3,1.9l0.7-0.1
	c0.8-0.1,1.6-0.1,2.4,0l7.1-1c0.7,0.2,1.1,0.4,1.3,0.8c0.2,0.3,0.3,0.6,0.4,0.9l-0.2,0.9c-0.2,0.7-0.7,1.3-1.4,1.7
	c-0.7,0.5-1.4,0.8-2.2,1h-0.3l-6.9,1.2c-1,0.2-2,0.3-3,0.3l-1-0.3c-0.9,0.1-1.5-0.6-1.6-1.8c0.1-1.6,0.3-3.2,0.7-4.8l6-20.2
	c0.5-2.2,1.9-4,3.8-5.1L195.7,449z M187.6,472.6L187.6,472.6l-0.2,0.9c-0.5,1.7-0.2,2.6,1.1,2.8l0.3,0c-0.4,0.6-1.1,1.1-1.9,1.2
	h-0.1c-1,0.1-1.5-0.5-1.4-1.8l0.1-0.5C185.9,474.1,186.6,473.2,187.6,472.6z M190,466c0.9-0.1,1.4,0.4,1.6,1.4l-0.5,0.1
	c-1,0.1-1.8,0.9-2.6,2.3c-0.1,0.2-0.2,0.4-0.3,0.7l-0.2,0.6h-0.2c-0.7-0.5-1-1.4-0.6-2.2v-0.1C187.6,467.4,188.6,466.4,190,466
	L190,466z M191.4,459.5l-0.2,0.5l-0.1,0.4c-0.4,1.2,0,2,1,2.2l0.7-0.1v0.1c-0.5,1-1.4,1.6-2.5,1.9h-0.1c-1,0.1-1.5-0.5-1.4-1.8
	l0.1-0.5C189.3,461,190.2,460,191.4,459.5L191.4,459.5z M194.8,452.2c0.8-0.1,1.3,0.4,1.5,1.4l-0.1,0.2c-0.1,0-0.2,0.1-0.3,0.2H195
	c-1,0.1-1.9,0.9-2.7,2.4l-0.2,0.5c-0.5-0.5-0.6-1.3-0.3-1.9V455c0.4-1.2,1.3-2.2,2.5-2.7L194.8,452.2z"/>
<path class="st0" d="M221.1,445.1l2.4-0.3c1.1,0,2.2,0.2,3.3,0.4c0.6,0.4,1.1,0.8,1.6,1.3c0.4,1.5,0.5,3,0.2,4.5l-0.1,0.2
	c-0.1,0.6-0.5,1.1-1,1.5c-0.1,0.1-0.3,0.3-0.5,0.3c-0.2,0-0.4,0-0.5-0.1c-0.5-0.7-0.9-1.3-1.2-2c-0.6-0.9-1.6-1.3-2.6-1.1
	c-0.4-0.2-0.9-0.3-1.4-0.2l-0.9,0.1c-1,0.2-2,0.6-2.9,1.1c-0.3,0.3-0.7,0.5-1.1,0.7c-0.8,0.5-1.5,1.2-2,2.1
	c-0.1,0.1-0.1,0.2-0.2,0.3l-0.2,0.7c-0.2,0.6-0.3,0.9-0.4,0.9c-0.1,0.4,0.2,0.9,1,1.4c0.9,0.6,2,0.9,3.1,1c0,0.1,0.3,0.2,0.9,0.2
	c0,0.1,0.4,0.2,1.3,0.2c0.1,0.2,0.6,0.3,1.4,0.4c0.3,0.2,0.6,0.3,0.9,0.4c1,0.8,1.7,1.9,2,3.1c0.3,0.8,0.5,1.6,0.5,2.4
	c0.2,0.2,0.2,0.7,0,1.3l-0.7,2.4c-0.5,1.1-1.1,2.2-1.8,3.2c-0.5,1.1-1.1,2.1-2,2.9c-0.9,0.9-2,1.7-3.2,2.2c-0.7,0.3-1.5,0.6-2.3,0.8
	c-0.7,0.1-1.3,0.2-2,0.5l-3.8,0.5c-1.6,0-2.4-0.1-2.3-0.3c-0.9-0.1-1.5-0.9-1.8-2.4c-0.1-1.5,0-3,0.3-4.4c0-0.1,0.1-0.2,0.1-0.3
	c0-0.2,0.1-0.4,0.1-0.6c0.1-0.7,0.6-1.3,1.1-1.6c0.2-0.1,0.4-0.2,0.6-0.2c0.1,0,0.2,0,0.3,0c0.4,0.3,0.7,1.2,0.9,2.9
	c0.1,0.7,0.4,1.3,0.8,1.8c0.5,0.3,1.1,0.4,1.7,0.3l2.3-0.3c3-0.6,4.7-1.2,5.1-1.9c0.8-1,1.5-2,2-3.2l0.4-1.3c0.2-0.8,0-1.6-0.4-2.3
	c-0.6-0.9-1.6-1.4-2.6-1.3c-0.6-0.3-1.3-0.4-2-0.4c0-0.1-0.3-0.2-1.1-0.2c0-0.1-0.3-0.1-1.1-0.2c0-0.1-0.5-0.3-1.3-0.5
	c-0.7-0.4-1.4-0.9-2-1.5c-0.6-0.5-1-1.2-1.2-2c0-0.7,0-1.3,0.2-2l0.3-0.9c0.5-1.4,1.1-2.7,1.8-4c1.9-2.2,3-3.3,3.4-3.3
	c1.2-0.9,2.5-1.7,3.8-2.3C220.1,445.4,220.9,445.1,221.1,445.1z"/>
<path class="st0" d="M239.9,442.1c0.7,0.2,1,0.6,1,1.1c0,1.1-0.2,2.1-0.5,3.1l-5.7,19.2c-0.5,1.6-0.9,2.8-1.1,3.4l-0.7,1.9
	c-0.3,0.9-0.6,1.8-1.1,2.8c-0.3,0.9-1,1.6-2,1.8l-0.6-0.1c-0.4,0.1-0.7-0.1-0.8-0.5c0,0,0,0,0-0.1c0-0.7,0-1.3,0.1-2l1.1-4
	c0.4-1.5,0.7-2.3,0.7-2.4l6.1-20.6c0.6-1.4,1.6-2.7,2.8-3.5L239.9,442.1z"/>
<path class="st0" d="M259.6,439.9l2.1-0.3c1.5-0.4,3.1,0,4.4,0.9c1,0.8,1.5,2.2,1.2,3.5c-0.3,0.8-0.9,1.4-1.6,1.8
	c-0.3,0.2-0.6,0.3-1,0.3c-0.8-0.2-1.5-0.6-2.2-1c-0.6-0.3-1.2-0.4-1.9-0.4l-2.3,0.3c-1.8,0.4-3.4,1.1-4.8,2.3
	c-0.8,0.7-1.6,1.5-2.3,2.4c-0.1,0.2-0.5,0.7-1,1.5c-0.9,1.2-1.7,2.5-2.3,3.9l-0.7,2.4c-0.5,1.8-0.9,3.3-1.2,4.7
	c-0.7,3,0,4.7,2.1,5.3c1,0.3,2,0.5,3.1,0.6l3.2-0.5c0.5-0.1,1.9-0.9,4.1-2.5c0.6-0.3,1.1-0.9,1.4-1.6c0.5-0.7,0.8-1.4,1-2.1l1.1-3.7
	l-0.9,0.1c-2.3,0.3-3.8,0.2-4.5-0.3c-0.5-0.3-0.6-0.8-0.4-1.5v-0.1c0.4-1,1.2-1.8,2.2-2.2l1.7-0.4c1.3-0.3,2.4-0.5,3.4-0.6
	c1.1-0.2,2.2,0.1,3.2,0.7c0.3,0.2,0.2,1.3-0.3,3.2l-1.5,5.1c-0.4,1.4-1.1,2.7-1.9,3.9c-1.1,1.7-2.5,3.2-4.1,4.3
	c-2.6,1.6-4.4,2.5-5.4,2.7l-3.4,0.5c-0.9,0.1-1.7,0.1-2.6-0.1c-1,0-2-0.3-3-0.8c-0.7-0.6-1.4-1.2-2-1.9c-0.8-1.4-1.2-2.9-1.1-4.5
	c0.1-1.1,0.2-1.7,0.2-1.8l0.1-0.7c0.3-1.6,0.7-3.3,1.2-4.8l1.1-3.5c0.8-1.9,1.9-3.6,3.1-5.3c1.2-1.8,2.6-3.5,4.3-4.9
	c0.4-0.3,0.7-0.6,1-0.9c0.8-0.4,1.6-1,2.3-1.5C256,441,257.7,440.3,259.6,439.9z M261.2,456.1L261.2,456.1c1.1-0.1,1.5,0.5,1.5,1.8
	l-0.1,0.5c-0.3,0.9-0.9,1.7-1.7,2.2c0.5-1.6,0-2.5-1.5-2.9l-0.4,0v-0.1C259.5,456.8,260.3,456.3,261.2,456.1L261.2,456.1z
	 M262.1,456.9c0.5-0.1,0.7,0.3,0.6,1.1c-0.4,0.8-0.8,1.2-1.2,1.2l0.1-0.3c0.2-0.8,0-1.2-0.6-1.1C261.1,457.3,261.6,457,262.1,456.9
	L262.1,456.9z"/>
<path class="st0" d="M280.3,437c0.1,0,0.1,0.1,0.2,0.1c0.3,0,0.5,0,0.8,0c0.8,0,1.5,0.7,1.6,1.5c0.3,0.8,0.5,1.6,0.7,2.5
	c0,1.1,0.2,2.1,0.6,3.2c0.4,1.5,0.6,2.5,0.8,3c0.5,1.2,1,2.4,1.6,3.5c0.2,0.6,0.4,1.1,0.6,1.7c0.1,0.5,0.2,1,0.3,1.3s0.4,1,0.9,2.2
	c0.8,1.9,1.4,3.1,1.7,3.6l1.1-4.3c1-3.3,1.6-5.4,1.8-6.2l3.5-11.9c0.4-1.2,1.3-2.2,2.4-2.7c0.2,0,0.4-0.1,0.4-0.1
	c1.4,0.1,1.9,0.8,1.4,2.3l-3.3,11.1c-0.8,2.7-1.5,5.1-2.3,7.5l-2.5,8.1c-0.2,0.5-0.3,0.9-0.5,1.3l-0.1,0.3c-0.5,0.9-1.3,1.6-2.1,2.1
	l-0.7,0.2c-0.9,0-1.8-0.4-2.3-1.1l-1.6-2.9c-0.1-0.2-0.5-1.2-1.2-3.1c-0.5-1-0.9-2-1.2-3.1c-0.2,0-0.4-0.8-0.6-2.3
	c-0.3-0.7-0.6-1.4-1-2.1c0-0.1-0.2-0.5-0.4-1.1c-0.3-1-0.6-2-0.9-3.1l-0.5-2.1h-0.1l-0.4,1.1l-6.1,19.8c-0.4,1-1,1.9-1.9,2.5
	c-0.2,0.1-0.5,0.1-0.7,0.2H270c-0.8-0.1-1.1-0.6-1.2-1.6c0.1-0.4,0.2-0.8,0.3-1.2l5.1-17.1c0.7-2.3,1.4-4.7,2.2-7.2l0.7-2.5
	c0.5-1.2,1.4-2.3,2.5-3C280.1,437.2,280.2,437.1,280.3,437z M280.3,448c1-0.1,1.5,0.4,1.5,1.6c0,0.2,0,0.4-0.1,0.6l-0.2,0.6
	c0.1,0.4,0,0.7-0.1,1.1l-0.1,0.4c-0.3-0.4-0.8-0.6-1.3-0.6c-1.4,0.4-2.6,1.6-2.9,3h-0.1c0.2-0.5,0.2-0.9,0.1-1.4
	c0.2-0.7,0.3-1.5,0.3-2.2l0.1-0.3C277.9,449.4,278.9,448.4,280.3,448L280.3,448z M279.9,446.2c0.6,0.1,0.7,0.5,0.5,1.2
	c-0.1,0.1-0.1,0.2-0.1,0.3c0.2,0,0.2,0.4,0,1.3c0,0,0.1,0,0,0.1v0.1c-0.2-0.2-0.4-0.3-0.6-0.3c-0.5,0.1-0.9,0.5-1.3,1.3h-0.1
	l0.2-1.6c0.1-0.1,0.1-0.2,0.2-0.3c-0.2-0.2-0.2-0.6-0.1-0.9C278.7,446.8,279.2,446.3,279.9,446.2L279.9,446.2z M281.3,452.3
	c0.1,0,0.1,0,0.1,0.2v0.1C281.3,452.6,281.3,452.6,281.3,452.3L281.3,452.3z M281.4,452.6c0.1,0,0.1,0.1,0.1,0.2v0.1
	C281.4,452.8,281.3,452.8,281.4,452.6L281.4,452.6z M291.9,452.3c0.3,0.5,0.3,1,0.1,1.5l-0.1,0.5c0.1,0.4,0,0.7-0.1,1.1v0.1
	c-0.4,1.2-1.3,2.2-2.5,2.7l-0.4,0c-1,0.1-1.5-0.5-1.4-1.8l0.2-0.8c-0.1-0.4,0-0.7,0.1-1.1v-0.1c0.3,0.4,0.8,0.6,1.3,0.5h0.1
	c1-0.1,1.9-0.9,2.7-2.4L291.9,452.3z M290.8,456.4c0.2,0.2,0.2,0.5,0.1,1l0,0.2c0.2,0,0.3,0.3,0.2,0.9c-0.2,0.6-0.7,1.1-1.3,1.2
	c-0.3,0-0.6-0.3-0.8-1c-0.1,0,0-0.4,0.1-1.1c0.1,0.1,0.3,0.2,0.5,0.2C290,457.7,290.5,457.2,290.8,456.4L290.8,456.4z"/>
<path class="st0" d="M313.8,432.5l7.4-0.8c2.3,0.1,3.6,0.5,3.9,1.2c0.1,0.3,0,0.7-0.1,1v0.1c-0.2,0.7-0.6,1.2-1.2,1.6
	c-0.6,0.4-1.3,0.6-2,0.7l-9.1,1.2c-1.2,0.3-1.8,0.5-1.8,0.7l-2.4,7.9l4.9-0.5c2.4-0.2,3.8-0.1,4.1,0.1c0.3,0.4,0.4,0.9,0.3,1.4
	l-0.2,0.5c-0.3,0.7-0.7,1.3-1.3,1.8l-1.2,0.5c-1.6,0.3-2.7,0.4-3.3,0.5l-4.9,0.7l-2.1,6.9c-0.1,0.6-0.2,1.3-0.3,1.9l0.7-0.1
	c0.8-0.1,1.6-0.1,2.4,0l7.1-1c0.7,0.1,1.1,0.4,1.3,0.8c0.2,0.3,0.3,0.6,0.4,0.9l-0.2,0.9c-0.2,0.7-0.7,1.3-1.4,1.7
	c-0.7,0.5-1.4,0.8-2.2,1c-0.1,0-0.2,0-0.3,0l-6.9,1.2c-1,0.2-2,0.3-3,0.3l-1-0.3c-0.9,0-1.5-0.6-1.6-1.9c0.1-1.6,0.3-3.2,0.7-4.8
	l6-20.2c0.5-2.2,1.9-4,3.8-5.1L313.8,432.5z M305.6,456.2L305.6,456.2l-0.2,0.9c-0.5,1.7-0.2,2.6,1.1,2.8h0.3
	c-0.4,0.6-1.1,1.1-1.9,1.2h-0.1c-1,0.1-1.5-0.5-1.4-1.8l0.1-0.5C303.9,457.7,304.7,456.8,305.6,456.2L305.6,456.2z M308.1,449.5
	c0.9-0.1,1.4,0.4,1.6,1.5l-0.5,0.1c-1,0.1-1.8,0.9-2.6,2.3c-0.1,0.2-0.2,0.4-0.3,0.6l-0.2,0.6h-0.2c-0.7-0.5-1-1.4-0.6-2.2v-0.1
	C305.7,451,306.7,450,308.1,449.5z M309.5,443.1l-0.2,0.5l-0.1,0.4c-0.4,1.2,0,2,1,2.2l0.7-0.1v0.1c-0.5,0.9-1.4,1.6-2.5,1.9h-0.1
	c-1,0.1-1.5-0.5-1.4-1.8l0.1-0.5C307.4,444.6,308.3,443.6,309.5,443.1z M312.8,435.8c0.8-0.1,1.3,0.3,1.5,1.4l-0.1,0.2
	c-0.1,0-0.2,0.1-0.3,0.2h-0.9c-1,0.1-1.9,0.9-2.7,2.4l-0.2,0.5c-0.5-0.5-0.6-1.3-0.3-1.9v-0.1c0.4-1.2,1.3-2.2,2.5-2.7L312.8,435.8z
	"/>
<path class="st0" d="M333.8,429.1L333.8,429.1c0.7-0.1,0.9,0,0.9,0.1l0.4-0.1l2.4-0.3c3.3-0.5,5.6-0.5,6.9-0.1
	c0.8,0.2,1.5,0.7,1.9,1.5c0.7-0.1,1.3,0.8,1.8,2.5c0.3,1.2,0.2,2.5-0.1,3.7l-1.3,4.4c-1.1,2.7-3,5-5.4,6.7c0,0.9,0.1,1.7,0.4,2.5
	c0.3,1.6,0.7,3.1,1.3,4.6c0,0.1,0.1,0.5,0.3,1.3c0.2,0.5,0.3,1.1,0.2,1.6l-0.1,0.3c-0.4,1-1.1,1.8-2,2.4c-0.1,0.1-0.3,0.1-0.4,0.1
	h-0.2h-0.3c-0.6-0.1-1.1-0.9-1.6-2.3c-0.7-1.8-1.2-3.7-1.6-5.6c-0.2-0.9-0.5-1.8-0.7-2.6c-1,0.4-2,0.8-3.1,1l-4.4,0.6l-2.4,8.1
	c-0.3,1.2-1.2,2.2-2.3,2.7c-0.2,0.1-0.4,0.2-0.6,0.2h-0.1c-1,0.2-1.5-0.5-1.5-1.8c0.1-0.5,0.2-0.9,0.3-1.3l7.9-26.5
	c0.4-1.5,1.3-2.8,2.6-3.6C332.8,429.4,333.1,429.3,333.8,429.1z M330.2,449.7c0.9-0.1,1.4,0.4,1.6,1.5l-0.1,0.3l-0.5,0.1
	c-1.2,0.3-2.2,1.1-2.8,2.2c-0.1,0.2-0.2,0.4-0.3,0.6l-0.1,0.5c-0.7-0.5-1-1.4-0.6-2.2v-0.1C327.8,451.2,328.9,450.1,330.2,449.7
	L330.2,449.7z M329.5,450.5c0.5-0.1,0.7,0.3,0.6,1.1h-0.1c-0.6,0.1-1.1,0.6-1.4,1.2h-0.1c-0.3-0.2-0.4-0.5-0.3-1
	C328.4,451.1,328.8,450.7,329.5,450.5L329.5,450.5z M331.8,442.8l-0.2,0.5c-0.3,1.1,0,1.9,0.9,2.2c0,0,0.2,0.1,0.5,0l0.3,0l0.4-0.1
	l-0.1,0.2c-0.5,0.9-1.4,1.6-2.5,1.9h-0.1c-1,0.1-1.5-0.5-1.4-1.8l0.1-0.5C330.2,444.2,330.9,443.4,331.8,442.8L331.8,442.8z
	 M334,435.4l-2.7,9.1c0,0,0.1-0.1,0.1-0.1v0.1l-0.2,0.5c-0.1,0.5,0,0.8,0.3,0.9l2.6-0.5c1.5-0.4,3.2-1,5.2-1.9
	c0.5-0.3,1.2-0.8,2.1-1.5c0.3-0.2,0.5-0.5,0.6-0.9l1.1-3.8c0.1-1.5-0.1-2.4-0.6-2.6c-0.7-0.9-1.9-1.3-3-1.1c0-0.2-1.1-0.1-3.5,0.2
	h-0.4l0,0.1h-0.4C334.9,434,334.4,434.5,334,435.4C334,435.4,334,435.4,334,435.4L334,435.4z M335.8,432.7c0.8-0.1,1.2,0.3,1.4,1.1
	v0.1h-0.7h-0.1c-1,0.1-1.9,0.9-2.7,2.4l-0.2,0.6l-0.1,0.6c-0.6-0.5-0.8-1.3-0.5-2v-0.1c0.4-1.2,1.3-2.2,2.5-2.7L335.8,432.7z
	 M336.8,448.4L336.8,448.4c1.1-0.1,1.5,0.5,1.5,1.8l-0.1,0.5c-0.2,0.7-0.6,1.3-1,1.8c-0.4-1.1-0.7-1.7-1-1.6
	c0.1-0.2-0.2-0.2-0.8-0.2l-0.5,0.1c0,0-0.1,0,0-0.1c-0.3,0.1-0.5,0.2-0.8,0.3v-0.1c0.3-0.7,0.8-1.4,1.4-1.9
	C335.8,448.6,336.3,448.4,336.8,448.4L336.8,448.4z M336.5,449.5c0.5-0.1,0.7,0.3,0.5,1.1l-0.2,0.5h-0.1c-0.2-0.6-0.4-0.8-0.7-0.8
	l-0.8,0.3l0.1-0.2C335.5,450,335.9,449.6,336.5,449.5L336.5,449.5z M342.6,445.3c0.5-0.1,1,0.1,1.2,0.5c-0.3,0-0.9,0.8-1.8,2.2
	l-0.2,0.5c-0.2,0.5-0.2,1.1,0,1.6v0.1l-0.4,0.1l-0.4,0c-1,0.1-1.5-0.5-1.4-1.8l0.1-0.5C340.2,446.8,341.2,445.7,342.6,445.3
	L342.6,445.3z"/>
<g id="LINE_A">
	<path class="st0" d="M1.2,230.6l0.9-1.1c1.4,4.3,2.3,8.8,2.9,13.3c0.4,3.2,1.1,6.2,1.5,9.5c0.2,1.4,0.4,2.9,0.5,4.2
		c0.4,3.5,1,7,2,10.5c1.6,6.4,3.5,12.8,5.7,19c0.7,1.9,1.4,3.7,2.1,5.6c0.6,1.3,1.1,2.6,1.5,4c0.1,0.5,0.3,1,0.6,1.4
		c1.1,2.1,2.1,4.3,2.8,6.5c0.8,2.1,1.7,4.1,2.8,6c0.5,0.7,0.9,1.5,1.2,2.3c0.6,2.2,2,4.2,2.9,6.4c0.7,1.3,1.4,2.6,2.3,3.7
		c0.6,0.7,1.1,1.6,1.4,2.5c0.2,0.4,0.4,0.9,0.6,1.3l3,5.1c2,3.6-3.5,3.3-5.1,0.8c-0.8-1.3-1.8-2.5-2.6-3.6c-3.1-4.4-5.8-9-8-13.9
		c-1.7-3.4-3.3-6.8-4.9-10.3c-0.2-0.5-0.4-1-0.6-1.5c-1-4-2.8-7.6-4.2-11.4c-0.2-0.5-0.4-1-0.5-1.5c-0.8-4-2.4-7.7-3.5-11.6
		c-0.8-2.1-1.3-4.3-1.6-6.5c-0.1-0.5-0.2-1-0.4-1.5c-0.2-0.8-0.5-1.5-0.6-2.3c-1.4-6.8-2.4-13.6-3-20.5c-0.2-3.2-0.2-6.3-0.1-9.4
		C0.8,235.3,1,233.1,1.2,230.6z"/>
	<path class="st0" d="M3.7,192.7c0.4,3.1,0.1,7.2-0.1,11.3c-0.2,3.3-0.5,6.7-0.6,10.1c0,2.3-0.4,4.6-1.1,6.7
		c-0.2,0.4-0.5,0.8-0.6,0.5c-0.5-1.4-0.9-3-1.3-4.6c0.1-3.2-0.2-6.4,0.5-9.7c0.2-0.8,0.2-1.6,0.3-2.4c0.2-3.6,0.6-7.3,1.3-10.8
		c0.1-0.9,0.2-1.9,0.1-2.9c0-1.6-0.2-3-0.1-4.7c0.1-1.3,0.2-2.6,0.4-3.8c0.4-2.7,0.9-5.5,1.5-8.2c1.1-5.7,1.9-10.9,3.2-16.3
		c0.5-2.3,1.2-4.5,2.1-6.6c1.2-2.6,2.1-5.3,2.9-8c1.2-4.8,3.2-9.4,5.8-13.6c2.2-3.9,4.6-7.6,7.4-11.2c1.2-2.4,2.8-4.8,3.9-7
		c2.3-4.9,5-9.7,8.1-14.2l5.4-7.6c0.7-1,1.2-1.9,1.8-2.9c1.6-2.6,3.5-5,5.8-7.1l4.5-4.2c1.1,0,2.1,0.1,3,0.1c0.5,0,0,1.2-1,2.5
		c-1.4,1.7-2.9,3.6-4.4,5.1c-2,2.1-3.8,4.4-5.4,6.8c-3.5,4.6-6.8,9.3-10.5,13.6c-2.6,2.9-4.9,6.1-7.1,9.3c-1.7,2.5-3.3,5.5-3.7,7.8
		c-0.1,0.6-0.4,1.3-0.6,1.9c-1,2.6-1.9,5.3-2.9,8c-0.5,1.5-1.2,3.1-1.8,4.7c-1.4,3.8-3,7.6-4.3,11.5c-1.1,2.9-2,5.9-2.7,9
		c-0.4,2.3-1.1,4.6-1.6,6.9c-0.3,1.6-0.8,3.2-1.4,4.8c-1,2.7-1.8,5.4-2.5,8.1c-0.6,2.5-1.1,5.1-1.6,7.7c-0.1,0.8-0.3,1.6-0.4,2.4
		c0,1.1-0.4,2.2-0.9,3.2C4.3,189.8,4.3,189.9,3.7,192.7z"/>
</g>
<g id="LINE_B">
	<path class="st0" d="M414.7,236.4l-1,1c-0.7-4.5-1-9-0.9-13.6c0-3.2-0.2-6.3-0.2-9.6c0-1.4,0-3,0.1-4.3c0.2-3.6,0-7.1-0.5-10.7
		c-0.7-6.6-1.6-13.2-2.9-19.7c-0.4-2-0.8-3.9-1.2-5.8c-0.4-1.4-0.7-2.8-0.9-4.2c-0.1-0.5-0.2-1-0.4-1.5c-0.8-2.2-1.4-4.5-1.8-6.9
		c-0.5-2.2-1.1-4.3-1.9-6.4c-0.4-0.8-0.7-1.6-0.9-2.4c-0.3-2.3-1.4-4.5-2-6.8c-0.5-1.4-1.1-2.7-1.8-4c-0.5-0.8-0.8-1.8-1-2.7
		c-0.1-0.5-0.3-0.9-0.5-1.4l-2.2-5.5c-1.5-3.8-3.1-7.6-4.6-11.3c-1.6-3.8-3.6-7.4-5.9-10.8c-1.2-1.9-2.5-3.7-3.9-5.4
		c-1-1.1-2.2-3.1-3.4-4.6c-0.7-1-1.5-2-2.4-2.9c-1.3-1.4-2.5-2.8-3.6-4.4l-4.3-5.6c-2.5-3.1-4.8-6.4-6.9-9.8c-1.2-2-1.1-3.1,0.1-2.6
		c0.6,0.2,1,0.2,1.6,0.5c0.4,0.3,0.7,0.6,1.1,0.9c4.2,3.2,8.3,8.2,12.2,12.9c1.6,2,3.1,4.6,4.7,6.8c3.3,4.6,5.4,9.4,8.1,14.2
		c0.9,1.5,1.5,3.1,2.3,4.6c1.8,3.6,3.9,7,6.1,10.4c1.5,2.3,2.8,4.7,3.9,7.1c0.6,1.4,1.4,2.7,2.1,4c2.4,4.8,4.4,9.8,5.9,14.9
		c1.2,3.6,2.3,7.2,3.3,10.9c0.2,0.5,0.3,1,0.4,1.5c0.4,4.1,1.7,8,2.5,11.9c0.1,0.5,0.2,1.1,0.3,1.6c0.2,4.1,1.2,8,1.8,12
		c0.5,2.2,0.7,4.4,0.6,6.6c0,0.5,0.1,1,0.2,1.5c0.1,0.8,0.3,1.6,0.3,2.4c0.4,6.9,0.4,13.9,0,20.8c-0.2,3.2-0.7,6.3-1.2,9.3
		C415.7,231.8,415.3,233.9,414.7,236.4z"/>
	<path class="st0" d="M406.7,273.6c0-3.1,0.9-7.2,1.7-11.2c0.7-3.3,1.4-6.6,2-9.9c0.3-2.3,1-4.5,2.1-6.5c0.2-0.3,0.6-0.7,0.7-0.4
		c0.3,1.4,0.5,3.1,0.6,4.8c-0.6,3.2-0.7,6.4-1.9,9.5c-0.3,0.8-0.5,1.6-0.6,2.4c-0.7,3.6-1.6,7.1-2.8,10.5c-0.3,0.9-0.4,1.9-0.5,2.8
		c-0.2,1.6-0.3,3-0.6,4.7c-0.3,1.3-0.6,2.5-1,3.7c-0.8,2.6-1.7,5.3-2.7,7.9c-2,5.5-3.5,10.5-5.5,15.7c-0.8,2.2-1.8,4.3-3.1,6.2
		c-1.5,2.4-2.9,4.9-4,7.5c-1.9,4.6-4.5,8.8-7.8,12.6c-2.7,3.5-5.7,6.9-8.9,10c-1.6,2.2-3.4,4.4-4.9,6.4c-3,4.6-6.3,8.9-10,12.9
		l-6.5,6.8c-0.8,0.9-1.5,1.8-2.2,2.6c-1.9,2.4-4.2,4.5-6.7,6.2l-5.1,3.5c-1.1-0.2-2-0.4-2.9-0.6c-0.5-0.1,0.2-1.2,1.4-2.3
		c1.7-1.5,3.4-3.2,5.1-4.4c2.2-1.8,4.4-3.8,6.4-5.9c4.1-4,8-8.3,12.4-12c3-2.6,5.7-5.3,8.4-8.2c2-2.3,4-5,4.8-7.2
		c0.2-0.6,0.5-1.2,0.9-1.8c1.4-2.5,2.7-5,4-7.5c0.8-1.4,1.7-2.9,2.5-4.4c1.9-3.5,4.1-7.1,6-10.7c1.5-2.8,2.8-5.6,4-8.6
		c0.8-2.2,1.8-4.4,2.6-6.6c0.6-1.6,1.3-3.1,2.1-4.6c1.3-2.5,2.5-5,3.6-7.7c1-2.4,1.9-4.9,2.7-7.4c0.3-0.8,0.6-1.6,0.7-2.3
		c0.2-1.1,0.7-2.2,1.4-3.1C405.8,276.4,405.8,276.3,406.7,273.6z"/>
</g>
<path class="st0" d="M66,52.7l0.1-0.1c1-0.8,1.8-0.9,2.4-0.5c0.7,0.4,1.5,0.7,2.2,1c0.7,0.2,1.4,0.5,2,1c1,0.3,1.9,0.7,2.9,1.1
	c0.3,0.3,0.8,0.6,1.2,0.8c0.5,0.2,0.9,0.5,1.3,0.8c1,0.4,2,0.9,2.8,1.5c0.5,0.2,1,0.4,1.4,0.7l0,0c0-0.6-0.1-1.1-0.3-1.7
	c-0.1-1.1-0.2-2.1-0.4-3.1c0.1-1.4-0.1-2.7-0.4-4.1c-0.3-1.1-0.5-2.2-0.6-3.3c-0.4-1.2-0.6-2.4-0.6-3.6C80,42.3,80.3,41.5,81,41
	c0.9-0.7,2.1-0.8,3-0.1c0.5,0.4,0.9,0.9,1.3,1.4l10.9,13.9c0.5,0.6,0.5,1.5,0,2.1c0,0.1-0.1,0.2-0.3,0.3l0,0c-0.7,0.5-1.6,0.5-2.2,0
	c-0.2-0.2-0.4-0.4-0.6-0.6l-8.5-11c0,0.4,0.1,0.8,0.2,1.1c0.1,0.5,0.2,1.1,0.4,1.6c0.1,1.2,0.3,2.4,0.5,3.6c0,0.7,0.1,1.5,0.2,2.2
	c0.3,1.5,0.5,2.7,0.7,3.8c0.2,0.8,0.3,1.4,0.3,1.8c0,0.8-0.3,1.5-0.8,2.1l0,0c-0.6,0.4-1.3,0.5-1.9,0.2c-0.7,0-1.4-0.3-2-0.8
	c-0.9-0.3-1.8-0.8-2.6-1.3c-0.4-0.1-1-0.4-2.1-0.9c-0.7-0.3-1.3-0.7-1.9-1.2c-1.2-0.5-2.3-1.2-3.3-1.9l-1.4-0.6
	c-0.3-0.1-0.5-0.2-0.8-0.3l0,0l9.6,12.2c0.5,0.6,0.5,1.5,0,2.1c0,0.1-0.1,0.2-0.3,0.3l0,0c-0.7,0.5-1.6,0.5-2.2,0
	c-0.2-0.3-0.4-0.5-0.6-0.7l-9.1-11.7c-1.2-1.8-1.9-2.8-2.1-3.1C65,55,65,54.2,65.3,53.4C65.5,53.2,65.8,53,66,52.7z M69.9,56.2
	c0.4-0.3,0.9-0.1,1.2,0.3c0,0,0,0,0,0c0.4,0.2,0.7,0.4,1,0.7c0,0,0,0.1,0,0.1c0.2,0.1,0.5,0.2,0.6,0.4v0.1c0.1-0.1,0.2,0,0.4,0.2
	c-0.3-0.1-0.6,0-0.9,0.1c-0.3,0.2-0.3,0.7-0.1,1.2h-0.1l-0.3-0.3c-0.1-0.2-0.2-0.3-0.1-0.3c-0.5-0.3-1-0.7-1.5-1.1
	c0-0.1,0-0.1-0.1-0.2c-0.1,0-0.2,0-0.4-0.2S69.6,56.6,69.9,56.2L69.9,56.2z M71.7,57.7c0.8-0.7,2.1-0.5,3.9,0.6
	c0.2,0.2,0.4,0.3,0.6,0.5l0.3,0.4c0.2,0.2,0.3,0.5,0.4,0.9l0.1,0.1v0.4c-0.4-0.2-1-0.2-1.3,0.2h-0.1c-0.7,0.5-0.9,1.5-0.4,2.2
	l0.3,0.3c-0.2,0-0.5-0.1-0.8-0.5c-0.1-0.2-0.2-0.3-0.3-0.5c-0.2-0.2-0.4-0.4-0.5-0.6L73.3,61c-0.7-0.1-1.3-0.4-1.8-0.8v-0.1
	C70.9,59.4,71,58.3,71.7,57.7L71.7,57.7z M79.2,57.1c0.6,0.3,1.4,0.2,2-0.2l0.1-0.1c0.5-0.3,0.7-0.9,0.6-1.5l0,0l0.3,0.3
	c0.8,1.1,0.9,2,0.2,2.8l-0.2,0.2c-0.7,0.5-1.6,0.5-2.3-0.1l-0.2-0.2C79.5,58,79.3,57.6,79.2,57.1L79.2,57.1z M81.1,58.1
	c0.3,0.1,0.6,0.1,0.8-0.1c0.2-0.3,0.3-0.5,0.2-0.7l0,0c0.1,0.1,0.1,0.1,0.2,0.2c0.6,0.7,0.6,1.3,0.2,1.7c-0.3,0.2-0.7,0.2-1-0.1
	C81.2,58.6,81,58.3,81.1,58.1L81.1,58.1z M84.3,47c0.3-0.2,0.7-0.2,1.1,0.2c0.1,0.1,0.1,0.3,0.1,0.5l0.4,0.4c0.1,0.2,0.1,0.3,0,0.4
	l0.1,0.1c0.2,0.2,0.2,0.4,0.2,0.7l0.2,0.2l0.1,0.3c-0.3-0.2-0.7-0.2-1-0.1l-0.1,0.1c-0.2,0.2-0.3,0.5-0.3,0.8l-0.1-0.1
	C85,50,84.9,49.8,85,49.7l-0.2-0.2c-0.1-0.2-0.1-0.4-0.1-0.4L84.5,49c-0.1-0.2-0.2-0.5-0.2-0.7l-0.2-0.2
	C83.8,47.8,83.9,47.5,84.3,47L84.3,47z M85,48.9c0.7-0.5,1.6-0.5,2.2,0.1l0.2,0.2c0.2,0.3,0.4,0.6,0.3,1l0.4,0.5l0,0
	c0.4,0.8,0.6,1.2,0.6,1.2c0.3,0.3,0.4,0.6,0.3,0.8l-0.2-0.4l-0.1-0.2c-0.5-0.7-1.5-0.9-2.2-0.4L86.3,52c-0.5,0.5-0.8,1.2-0.6,1.9
	l0,0c-0.2-0.3-0.4-0.7-0.4-1.1c-0.1-0.3-0.2-0.6-0.2-0.9l-0.4-0.5v-0.1c-0.5-0.7-0.5-1.6,0.1-2.3L85,48.9z"/>
<path class="st0" d="M96.8,31.2l2.7-1.6c0.8-0.3,1.6-0.5,2.4-0.7l2-0.2c0.5-0.1,1,0,1.5,0.2c0.6,0.1,1.1,0.4,1.5,0.8
	c0.7,0.3,1.4,0.7,1.9,1.2c0.3,0.3,0.6,0.7,0.9,1l1.1,1.5l0.9,1.2l0.9,1.5c0.3,0.7,0.4,1.5,0.5,2.3c0.5,1.6,0.7,3.2,0.7,4.8
	c-0.1,1-0.3,1.9-0.8,2.8c-0.3,0.6-0.7,1.2-1.2,1.7c0,0.1-0.4,0.5-1.4,1.2c-0.2,0.2-0.5,0.4-0.7,0.5l-2,1.2c-0.7,0.3-1.4,0.6-2.2,0.8
	c-0.6,0.2-1.3,0.2-1.9,0.2c-1.4-0.1-2.8-0.3-4.1-0.8c-1.1-0.6-2.1-1.4-2.9-2.3c-0.5-0.5-0.9-1-1.1-1.6L95,46.3
	c-0.9-1.6-1.5-3.3-1.8-5.1c0-0.7-0.1-1.3-0.2-2c-0.2-1.3,0.1-2.6,0.6-3.7c0.3-0.6,0.6-1.3,1-1.9c0.3-0.5,0.6-0.9,0.9-1.3
	C95.6,32.3,95.9,31.9,96.8,31.2z M97.8,44.3l0.4,0.6c0.3,0.6,0.7,1.1,1.3,1.5c0.5,0.7,1.2,1.1,2,1.3c0.7,0,1.5,0.1,2.2,0.3
	c0.8-0.2,1.6-0.4,2.4-0.5l0.6-0.3l0.7-0.4c1-0.6,1.9-1.5,2.6-2.5c0.3-0.5,0.4-1.1,0.4-1.7c-0.1-1.2-0.3-2.3-0.6-3.4
	c-0.2-0.6-0.3-1.3-0.4-1.9l-0.2-0.5c-0.1-0.3-0.3-0.5-0.4-0.8s-0.2-0.4-0.4-0.6l-1.4-1.7c-1.6-1.2-2.8-1.8-3.5-1.7
	c-0.7,0.1-1.3,0.2-2,0.4c-0.3,0-0.7,0.1-1,0.2c-0.3,0.1-0.6,0.2-0.9,0.4c-0.3,0.2-0.5,0.4-0.7,0.6c-0.6,0.6-1.1,1.4-1.5,2.1
	c-0.6,0.7-1,1.6-0.9,2.5c0.1,0.8,0.2,1.6,0.2,2.4C96.8,42,97.2,43.2,97.8,44.3z"/>
<path class="st0" d="M114.4,21L114.4,21c0.5-0.2,0.8-0.2,0.8-0.1l0.3-0.2l1.8-0.8c1.8-0.9,3.8-1.5,5.8-1.8c0.8-0.1,1.6,0,2.4,0.3
	c0.5-0.2,1.5,0.1,2.8,1c0.8,0.5,1.4,1.2,1.9,2.1l1.2,2.8c0.8,1.4,0.6,3.2-0.5,4.4c-0.1,0.3-0.3,0.5-0.5,0.8c0.5,0.5,1.1,1,1.7,1.3
	c1.4,1,2.6,1.7,3.5,2.3l0.9,0.7c0.4,0.2,0.8,0.5,1,0.8l0.1,0.2c0.2,0.7,0,1.4-0.4,1.9c-0.1,0.1-0.2,0.2-0.3,0.2l-0.2,0.1l-0.3,0.1
	c-0.9,0-1.8-0.3-2.5-0.8c-1.5-0.8-2.9-1.7-4.3-2.7l-1.9-1.2c-0.6,0.5-1.3,1-2.1,1.4l-3.4,1.5l2.3,5.2c0.3,0.7,0.1,1.6-0.6,2.1
	c-0.1,0.1-0.2,0.2-0.4,0.2h-0.1c-0.8,0.4-1.7,0.1-2.2-0.6c-0.2-0.3-0.3-0.5-0.4-0.8l-7.4-16.9c-0.5-0.9-0.4-2,0.3-2.7
	C113.7,21.4,113.9,21.3,114.4,21z M118,22.5c0.6-0.3,1.3-0.2,1.8,0.3v0.1l-0.6,0.2h-0.1c-0.8,0.3-1.2,1.2-1,2l0.2,0.4l0.2,0.4
	c-0.6,0-1.2-0.4-1.5-1l0,0c-0.3-0.8-0.1-1.7,0.6-2.2L118,22.5z M117.9,24.5l2.5,5.8c0,0,0.1-0.1,0.1-0.1l0,0l0.1,0.3
	c0.1,0.2,0.4,0.4,0.7,0.4l2-1c1-0.6,2.2-1.4,3.4-2.4c0.3-0.3,0.6-0.8,1-1.4c0.1-0.2,0.1-0.4,0.1-0.6l-1.1-2.4
	c-0.7-0.9-1.4-1.3-1.9-1.3c-1-0.3-2.1-0.3-3.1,0.2c0-0.1-1,0.2-2.8,1l-0.3,0.1v0.1l-0.3,0.1c-0.4,0.2-0.6,0.6-0.4,1.2L117.9,24.5z
	 M120,29.3l0.1,0.3c0.3,0.7,1.1,1.1,1.9,1c0.2,0,0.3,0,0.4-0.1l0.2-0.1l0.3-0.2l0.1,0.1c0,0.7-0.4,1.4-1.1,1.7H122
	c-0.8,0.3-1.7,0.1-2.2-0.7l-0.1-0.3C119.4,30.5,119.5,29.7,120,29.3L120,29.3z M122.3,33.5c0.7-0.3,1.5-0.1,2.1,0.4l0.1,0.2
	l-0.4,0.2c-0.8,0.3-1.3,1.1-1.1,2c0,0.2,0,0.3,0.1,0.4l0.1,0.3c-0.7,0-1.4-0.4-1.7-1.1v-0.1C121.1,35,121.4,34.2,122.3,33.5z
	 M122.1,34.2c0.4-0.2,0.7,0,1,0.4h-0.1c-0.4,0.2-0.6,0.6-0.5,1l-0.1,0.1c-0.3,0-0.6-0.2-0.8-0.5C121.5,34.8,121.7,34.5,122.1,34.2
	L122.1,34.2z M127.1,31.1L127.1,31.1c0.8-0.3,1.8-0.1,2.2,0.7l0.1,0.3c0.1,0.4,0.2,0.8,0.1,1.2c-0.9-0.5-1.5-0.8-1.7-0.7
	c-0.1-0.1-0.3-0.1-0.7,0.1l-0.4,0.2c0,0-0.1,0-0.1,0c-0.2,0.1-0.3,0.3-0.5,0.4v-0.1c-0.2-0.5-0.1-1,0.2-1.4
	C126.6,31.4,126.8,31.2,127.1,31.1L127.1,31.1z M127.4,31.8c0.4-0.2,0.7,0,1,0.4l0.1,0.2l0,0c-0.5-0.3-0.8-0.3-1-0.2l-0.5,0.4v-0.1
	C127,32.2,127.2,31.9,127.4,31.8L127.4,31.8z M130.4,27.8c0.4-0.2,0.9-0.2,1.3,0c-0.2,0.1-0.4,0.7-0.4,1.7l0.1,0.3
	c0.2,0.4,0.5,0.7,0.9,0.9l0,0l-0.3,0.2l-0.3,0.1c-0.8,0.3-1.7,0.1-2.2-0.7l-0.1-0.3C129.2,29.3,129.5,28.5,130.4,27.8L130.4,27.8z"
	/>
<path class="st0" d="M144.1,10l1.7-0.5c1.3-0.5,2.8-0.5,4.2-0.2c1.5,0.5,2.4,1.1,2.6,2c0.1,0.5-0.1,1.1-0.6,1.4
	c-0.1,0.1-0.3,0.2-0.5,0.3l-0.2,0.1c-0.8,0-1.6-0.1-2.4-0.3c-0.6-0.1-1.2-0.1-1.8,0l-1.9,0.6c-1.2,0.4-2.3,1.2-3.1,2.2
	c-0.4,0.6-0.7,1.2-0.9,1.8c0,0.2-0.1,0.5-0.2,1.1c-0.3,0.9-0.3,1.8-0.2,2.8l0.5,1.6c0.4,1.2,0.7,2.2,1.1,3.1c0.6,1.8,2.4,3,4.3,2.9
	c1,0.1,2,0,3-0.1l2.6-0.8c0.9-0.6,1.8-1.3,2.4-2.2c0.4-0.3,0.6-0.7,0.5-1.2c0.1,0,0.1-0.5-0.1-1.5l-0.8-2.5l-0.8,0.2
	c-1.3,0.5-2.7,0.7-4.1,0.6c-0.5-0.1-0.9-0.4-1-0.9v-0.1c-0.1-0.7,0.3-1.4,0.9-1.7l1.3-0.5c1-0.4,1.9-0.7,2.7-0.9
	c1-0.3,2-0.3,3.1-0.1c0.4,0.1,0.8,0.8,1.2,2l1,3.5c0.2,0.9,0.3,1.8,0.2,2.7c-0.2,1.3-0.7,2.5-1.7,3.4c-1,1.1-2.2,1.9-3.5,2.5
	l-2.7,0.8c-0.7,0.2-1.5,0.3-2.3,0.4c-1,0.2-2,0.2-2.9,0c-0.9-0.2-1.8-0.5-2.6-0.8c-1.2-0.6-2.3-1.5-3.1-2.6l-0.7-1.2l-0.2-0.5
	c-0.5-1-0.9-2.1-1.2-3.2l-0.7-2.4c-0.2-1.3-0.1-2.5,0.2-3.8c0.2-1.3,0.7-2.6,1.5-3.7c0.2-0.2,0.3-0.5,0.5-0.7
	c0.5-0.4,0.9-0.8,1.2-1.3C141.6,11.1,142.8,10.4,144.1,10z M153.1,19.6L153.1,19.6c0.9-0.2,1.8,0.1,2.1,0.9l0.1,0.3
	c0.2,0.6,0,1.2-0.4,1.7c-0.3-1-1.2-1.5-2.7-1.5l-0.3,0.1V21C152,20.4,152.5,19.8,153.1,19.6z M154.2,20c0.4-0.1,0.7,0.1,1,0.6
	c0,0.5-0.2,0.8-0.5,1l-0.1-0.2c-0.2-0.6-0.6-0.8-1-0.6C153.6,20.4,153.9,20.1,154.2,20z"/>
<path class="st0" d="M168.7,20.7v0.1h-0.3c-0.4,0.2-0.6,0.4-0.6,0.7h-0.1h0c-0.2,0.6-0.5,1.4-0.8,2.5c-0.1,0.5-0.4,1.3-0.6,2.4
	c-0.2,0.6-0.5,1.2-0.9,1.6c-0.2,0.2-0.4,0.3-0.7,0.3h-0.2h-0.6c-0.4,0-0.7-0.4-0.9-0.9c-0.1-0.2-0.1-0.4-0.1-0.6l-0.1-0.3
	c0-0.8,0.1-1.6,0.4-2.4c0.2-0.8,0.4-1.6,0.6-2.4c0.2-0.6,0.3-1.2,0.4-1.8c0.2-0.8,0.3-1.6,0.4-2.5c0.2-0.1,0.3-0.7,0.4-1.8
	c0.2-0.7,0.4-1.4,0.4-2.2c0.2-0.7,0.4-1.3,0.5-2c0.1-0.3,0.2-0.7,0.4-1.4s0.3-1.5,0.6-2.5l1.1-3.3c0-0.2,0.4-0.4,1.4-0.6
	c0.6-0.2,1.3-0.2,1.9,0c1.1,1.3,1.9,2.2,2.3,2.8l2,3c0.2,0.4,0.5,0.9,0.8,1.4c0.3,0.4,0.5,0.8,0.7,1.2c0.5,0.7,1,1.5,1.4,2.3
	c0.2,0.3,0.3,0.6,0.5,0.8s0.7,1.2,1.5,2.7c0.7,0.9,1.3,1.7,1.9,2.7c0.4,0.5,0.7,1.1,0.9,1.7l0.2,0.7c0,0.5-0.1,0.9-0.4,1.3
	c-0.3,0.1-0.6,0.2-0.9,0.3l-0.5,0.1c-0.5,0-1-0.4-1.5-1.1c-0.6-0.7-1.1-1.5-1.6-2.3c-0.2-0.4-0.5-0.8-0.8-1.1
	c-0.1-0.1-0.1-0.2-0.2-0.2h-0.1v-0.1l-0.4-0.4c-0.2-0.1-0.4-0.1-0.5-0.2v-0.1l-1.6,0.3C173.6,19.7,171.4,20.2,168.7,20.7z M168,19.7
	c0.7-0.1,1.4,0.2,1.8,0.8v0.1l-0.4,0.1c-1.2,0.2-2,1.1-2.1,2.3h-0.1c-0.4-0.3-0.6-0.7-0.7-1.2v0c-0.2-0.9,0.3-1.7,1.1-2L168,19.7z
	 M169,14.5v0.1l0.1,0.4c0.1,0.8,0.9,1.5,1.7,1.5l0.3-0.1v0.1c-0.2,0.7-0.7,1.3-1.4,1.4h-0.1c-0.9,0.2-1.7-0.3-2-1.1l-0.1-0.3
	c-0.2-0.9,0.3-1.7,1.1-2L169,14.5z M169.9,9.2c-0.1,0.3-0.2,0.7-0.2,1c-0.1,0.5-0.2,1-0.2,1.5c0,0.2-0.2,0.8-0.4,1.9
	c-0.1,0.5-0.2,1.1-0.3,1.6c-0.1,0.3-0.1,0.6-0.2,0.9c0.2,0.2,0.4,0.4,0.5,0.6l0.3,0.1l0,0l5-1l0,0c0.3-0.2,0.5-0.5,0.4-0.9v-0.1
	c-0.2-0.4-0.5-0.8-0.7-1.2c-0.1-0.1-0.2-0.4-0.4-0.7s-0.4-0.7-0.7-1.4c-0.2-0.3-0.6-1-1.4-2.3c-0.1-0.1-0.2-0.2-0.3-0.4l0,0H171
	c-0.2-0.1-0.4-0.1-0.5-0.1C170.3,8.9,170.1,9,169.9,9.2L169.9,9.2z M170.2,7.3c0.9-0.2,1.7,0.3,2,1.1l0.1,0.3c0.1,0.4,0,0.8-0.2,1.1
	c0.2,0.2,0.4,0.5,0.4,0.8v0.2v0.3h-0.1c-0.3-0.5-0.9-0.7-1.5-0.6h-0.1c-0.7,0.1-1.3,0.7-1.4,1.5c-0.2-0.1-0.4-0.3-0.5-0.8v-0.1
	c-0.1-0.4,0-0.8,0.2-1.2V10c-0.1,0-0.2-0.2-0.3-0.7V9.3c-0.2-0.9,0.3-1.7,1.1-2L170.2,7.3z M174,13.8h0.1c0.8-0.2,1.7,0.3,2,1.1
	l0.1,0.3c0.2,0.9-0.3,1.7-1.1,2h-0.3c-0.8,0.1-1.7-0.3-2-1.1c0.7-0.1,1.2-0.7,1.4-1.7L174,13.8z M177,17.5c0.9-0.2,1.7,0.3,2,1.1
	l0,0.3c0.1,0.6-0.1,1.3-0.7,1.7h-0.1c-0.6-1-1.4-1.4-2.2-1.3l-0.1,0.1h-0.1c0,0-0.1,0-0.1-0.1l-0.1,0.1h-0.1c-0.2-0.9,0.3-1.7,1.1-2
	L177,17.5z"/>
<path class="st0" d="M187.4,1c0.1,0,0.1,0,0.2,0c0.2,0,0.5,0,0.7,0.1c0.8,0.1,1.4,0.5,1.9,1.1c0.5,0.6,0.9,1.2,1.4,1.8
	c0.4,0.8,0.9,1.6,1.5,2.3c0.8,1,1.3,1.8,1.6,2.1c0.9,1,1.8,1.8,2.5,2.6c0.3,0.4,0.7,0.8,1.1,1.2c0.3,0.4,0.5,0.7,0.7,1l1.4,1.6
	c1.3,1.3,2.2,2.2,2.6,2.6l-0.3-3c-0.2-2.3-0.3-3.7-0.3-4.3l-0.5-8.2c-0.1-0.8,0.5-1.6,1.3-1.8c0.2,0,0.3,0,0.3-0.1
	c1.2,0.1,1.9,0.7,2,1.7l0.5,7.7c0.1,1.8,0.2,3.6,0.3,5.2l0.3,5.7c0,0.3,0,0.6,0,0.9v0.2c-0.2,0.6-0.7,1.1-1.2,1.4l-0.6,0.1
	c-0.9-0.1-1.7-0.4-2.4-0.9l-2.3-2.1c-0.2-0.2-0.8-0.9-2-2.2c-0.7-0.7-1.4-1.4-2-2.2c-0.5-0.5-1-1-1.3-1.7c-0.5-0.5-1-1-1.5-1.5
	c-0.1-0.1-0.3-0.3-0.7-0.8s-0.9-1.1-1.7-2.2l-1.1-1.5h-0.1v0.8l0.7,13.7c0,0.7-0.3,1.3-0.9,1.7c-0.1,0-0.3,0.1-0.6,0.1h-0.4
	c-0.7-0.1-1.3-0.5-1.6-1.2c-0.1-0.3-0.1-0.6-0.1-0.8L186.1,10c-0.1-1.6-0.2-3.3-0.3-5l-0.1-1.7c0.2-1.1,0.6-1.8,1.2-2
	C187.3,1.2,187.4,1.1,187.4,1z M189.9,7.5c0.5,0,0.8,0.4,0.8,0.8c0,0.1-0.1,0.1,0,0.2c0.1,0,0.3,0.3,0.4,0.9c0,0,0.1,0,0.1,0.1v0.1
	c-0.2-0.1-0.4-0.2-0.6-0.2c-0.4,0-0.6,0.3-0.7,0.9h-0.1l-0.3-1.1c0-0.1,0-0.1,0-0.2c-0.2-0.1-0.3-0.4-0.4-0.6
	C189.1,7.9,189.3,7.7,189.9,7.5z M190.8,8.8c0.8-0.1,1.6,0.4,1.9,1.2c0.1,0.1,0.1,0.3,0.1,0.4v0.5c0.2,0.2,0.3,0.5,0.2,0.8v0.2
	c-0.4-0.3-0.9-0.4-1.4-0.5c-1,0.1-1.7,1-1.7,2c0,0,0,0,0,0h-0.1c0-0.4-0.1-0.7-0.3-1c-0.1-0.5-0.2-1.1-0.4-1.6v-0.2
	C189.1,9.8,189.7,9.1,190.8,8.8L190.8,8.8z M193,11.9c0.1,0,0.1,0,0.1,0.1v0.1c-0.1,0-0.1,0-0.1-0.1C193,12,193,12,193,11.9
	L193,11.9z M193.2,12.1c0.1,0,0.1,0,0.1,0.1v0.1C193.2,12.3,193.2,12.3,193.2,12.1C193.2,12.2,193.2,12.2,193.2,12.1L193.2,12.1z
	 M202.4,12.3c0.3,0.2,0.5,0.6,0.5,1v0.3c0.2,0.2,0.3,0.5,0.2,0.8v0.1c0.1,0.9-0.5,1.6-1.3,1.8h-0.3c-0.8,0-1.6-0.5-1.8-1.3v-0.6
	c-0.2-0.2-0.3-0.5-0.2-0.8v-0.1c0.4,0.3,0.8,0.4,1.3,0.4h0.1c0.8,0,1.4-0.6,1.6-1.6L202.4,12.3z M202.7,15.3
	c0.2,0.2,0.4,0.4,0.4,0.7v0.1c0.2,0,0.3,0.2,0.4,0.6s-0.2,0.7-0.8,0.8c-0.3,0-0.6-0.2-1-0.8c-0.1,0-0.1-0.2-0.2-0.7
	c0.2,0.1,0.3,0.2,0.5,0.2C202.4,16.1,202.6,15.8,202.7,15.3L202.7,15.3z"/>
<path class="st0" d="M227.1,0.3h0.1c1.2,0.1,1.9,0.6,2.1,1.3c0.4,1.2,0.7,1.9,0.9,2.3c0.4,0.6,0.7,1.4,0.8,2.1
	c0.5,0.9,0.9,1.8,1.2,2.8c0,0.5,0.1,1,0.3,1.4c0.2,0.5,0.3,1,0.4,1.5c0.5,0.9,0.8,2,1,3c0.2,0.5,0.4,1,0.5,1.5h0
	c0.4-0.4,0.7-0.9,1-1.4c0.7-0.8,1.3-1.6,1.9-2.5c1-0.9,1.9-2,2.5-3.2c0.6-1,1.2-1.9,2-2.8c0.5-1.1,1.3-2.1,2.1-3
	c0.5-0.6,1.3-1,2.1-0.9c1.1,0.1,2,0.9,2.2,2c0,0.6,0,1.3-0.1,1.9l-2,17.6c-0.1,0.8-0.7,1.4-1.5,1.5c-0.1,0-0.3,0-0.4,0h-0.1
	c-0.8-0.1-1.5-0.8-1.6-1.6c0-0.3,0-0.6,0-0.9l1.6-13.7c-0.3,0.3-0.5,0.6-0.7,0.9c-0.3,0.4-0.6,0.9-0.9,1.4c-0.8,1-1.5,2-2.2,3
	c-0.5,0.5-1,1.1-1.4,1.7c-0.8,1.2-1.6,2.3-2.2,3.2c-0.5,0.7-0.8,1.2-1,1.5c-0.5,0.6-1.2,0.9-2,0.9h-0.1c-0.7-0.1-1.3-0.6-1.6-1.2
	c-0.5-0.6-0.8-1.3-0.9-2c-0.4-0.9-0.7-1.8-0.9-2.7c-0.2-0.3-0.4-1-0.8-2.1c-0.2-0.7-0.4-1.4-0.5-2.2c-0.4-1.2-0.8-2.4-1-3.7
	l-0.6-1.4c-0.1-0.2-0.3-0.5-0.4-0.7h-0.1l-1.8,15.4c-0.1,0.8-0.7,1.4-1.5,1.5c-0.1,0-0.3,0-0.5,0h-0.1c-0.8-0.1-1.5-0.8-1.6-1.6
	c0-0.3,0-0.6,0-0.9l1.6-14.7c0.4-2.1,0.6-3.3,0.7-3.7c0.4-0.7,1-1.3,1.7-1.5C226.4,0.3,226.7,0.3,227.1,0.3z M227.7,7.9
	c1,0.1,1.8,1.2,2.3,3.2c0,0.3,0,0.5,0,0.8l-0.1,0.5c0,0.3-0.1,0.6-0.4,0.9v0.1l-0.2,0.3c-0.1-0.5-0.6-0.8-1-0.8h-0.1
	c-0.8-0.1-1.6,0.4-1.9,1.3l0,0.4c-0.2-0.1-0.3-0.5-0.2-0.9c0-0.2,0.1-0.4,0.1-0.6c0-0.3,0-0.5,0-0.8c0-0.1,0-0.3,0.1-0.8
	c-0.5-0.5-0.7-1.2-0.7-1.9v0C225.9,8.5,226.6,8,227.7,7.9z M227.5,5.5c0.5,0.1,0.7,0.5,0.6,1c0.1,0.4,0.2,0.8,0.2,1.2
	c0,0-0.1,0-0.1,0c0.1,0.2,0.2,0.5,0.2,0.7l-0.1,0.1c0.1,0,0.1,0.2,0.1,0.5c-0.1-0.3-0.4-0.5-0.7-0.5c-0.4,0-0.7,0.2-0.9,0.8h-0.1
	c0,0,0-0.2,0-0.4s0.1-0.3,0.2-0.3c-0.2-0.6-0.3-1.2-0.3-1.8c0-0.1,0.1-0.1,0.1-0.2c-0.1,0-0.1-0.2-0.1-0.5S226.9,5.6,227.5,5.5z
	 M233.5,12.8c0.2,0.7,0.8,1.1,1.5,1.3h0.1c0.6,0.1,1.2-0.2,1.5-0.7h0.1v0.5c-0.1,1.3-0.8,2-1.8,2.1h-0.2c-0.8-0.1-1.4-0.6-1.5-1.7
	V14C233.1,13.6,233.2,13.2,233.5,12.8L233.5,12.8z M234.1,14.8c0.1,0.3,0.3,0.5,0.6,0.5c0.4,0,0.6-0.2,0.6-0.3h0.1
	c0,0.1,0,0.2,0,0.3c-0.1,0.9-0.5,1.4-1,1.3c-0.3,0-0.6-0.3-0.7-0.8C233.8,15.2,233.9,14.8,234.1,14.8L234.1,14.8z M243.4,11
	c0.8,0.1,1.4,0.6,1.5,1.7V13c0,0.4-0.2,0.8-0.5,1v0.7c-0.3,0.8-0.4,1.2-0.4,1.3c0,0.4-0.2,0.7-0.4,0.8l0.1-0.4v-0.2
	c0.1-0.8-0.4-1.6-1.3-1.9h-0.3c-0.7,0-1.4,0.3-1.8,0.9v-0.1c0.1-0.4,0.3-0.8,0.5-1.1c0.1-0.3,0.3-0.5,0.5-0.8v-0.7
	c0.1-0.8,0.8-1.5,1.6-1.5L243.4,11z M244.1,9.1c0.4,0,0.6,0.3,0.7,0.9c0,0.2-0.1,0.3-0.2,0.4c0,0.2,0,0.3,0,0.5
	c-0.1,0.2-0.1,0.3-0.2,0.3l0,0.1c0,0.2-0.1,0.5-0.3,0.6v0.3l-0.1,0.3c-0.2-0.5-0.4-0.7-0.7-0.8h-0.1c-0.3,0-0.6,0.1-0.7,0.4v-0.1
	c0.1-0.3,0.2-0.5,0.3-0.5v-0.3c0.1-0.2,0.2-0.4,0.2-0.4l0-0.1c0-0.3,0.2-0.5,0.3-0.7V9.8C243.3,9.4,243.6,9.2,244.1,9.1L244.1,9.1z"
	/>
<path class="st0" d="M271.2,8.2c0.4,0.2,0.7,0.6,0.9,1c0,0.8-0.1,1.6-0.2,2.4l-0.7,2.8c-0.2,1-0.4,1.8-0.5,2.6l-0.3,1.2
	c-0.1,0.3-0.1,0.6-0.2,1c-0.2,0.9-0.5,2.1-1,3.6l-1.4,3c-0.3,0.5-0.6,0.9-1,1.3c-0.4,0.5-0.9,0.9-1.4,1.2c-1.1,0.6-2.4,0.8-3.6,0.7
	l-1.5-0.4c-1-0.2-1.9-0.5-2.8-0.9c-0.8-0.4-1.6-0.9-2.3-1.4c-1.3-1-2.1-2.5-2.4-4.1c-0.3-1.5-0.3-3,0-4.5l0.7-2.9
	c0-0.6,0.1-1.2,0.3-1.7l0.1-0.2l1.5-6.2c0.5-1.1,1.1-1.7,1.9-1.8c0.3,0,0.4,0,0.5,0c0.7,0.5,1.1,1.3,1,2.1c0,0.8-0.2,1.5-0.3,2.3
	l-1,4.8c0,0.3,0,0.6,0,0.9l-0.8,3.3c-0.2,0.8-0.3,1.5-0.4,2.3c0.1,0.8,0.3,1.6,0.6,2.4c0.7,0.7,1.6,1.2,2.4,1.7
	c0.4,0.1,1,0.3,1.9,0.5l1.3,0.3c1,0.2,1.9-0.3,2.8-1.5c0.5-1.1,0.9-2,1.2-2.8s0.5-1.7,0.7-2.4c0.1-0.5,0.2-1,0.3-1.4l0.3-1.5
	l0.2-0.8l0.2-1.1l1.1-4.2c0.4-1,0.9-1.6,1.5-1.5L271.2,8.2z"/>
<path class="st0" d="M281.8,11L281.8,11c0.5,0.2,0.7,0.3,0.7,0.5l0.3,0l1.9,0.7c1.9,0.6,3.8,1.5,5.4,2.7c0.7,0.5,1.2,1.1,1.5,1.9
	c0.6,0.2,1,1.1,1.4,2.7c0.2,0.9,0.2,1.9-0.1,2.8l-1.1,2.9c-0.4,1.5-1.8,2.7-3.4,2.8c-0.3,0.1-0.6,0.2-0.9,0.2c0,0.7,0.1,1.4,0.3,2.1
	c0.3,1.4,0.6,2.7,1,4.1c0,0.1,0.1,0.5,0.2,1.1c0.2,0.4,0.2,0.9,0.1,1.3l-0.1,0.2c-0.3,0.6-0.9,1-1.6,1.1c-0.1,0-0.2,0-0.4-0.1
	l-0.2-0.1l-0.3-0.2c-0.6-0.7-1.1-1.5-1.2-2.4c-0.5-1.6-0.9-3.3-1.2-4.9c-0.2-0.8-0.4-1.6-0.5-2.2c-0.8-0.1-1.6-0.2-2.5-0.4l-3.5-1.3
	l-2,5.3c-0.3,0.8-1,1.3-1.9,1.1c-0.2,0-0.3,0-0.5-0.1h-0.1c-0.8-0.3-1.3-1.1-1.2-2c0.1-0.3,0.2-0.6,0.2-0.8l6.4-17.3
	c0.2-1,1.1-1.7,2.1-1.7C281,10.8,281.3,10.8,281.8,11z M278.9,25.5c0.7,0.3,1.2,1,1.2,1.8l-0.1,0.2l-0.4-0.2
	c-0.8-0.3-1.7-0.1-2.2,0.6c-0.1,0-0.1,0.1-0.2,0.4l-0.1,0.3c-0.6-0.5-0.8-1.3-0.5-2v-0.1C277,25.7,277.7,25.3,278.9,25.5z
	 M278.3,25.8c0.4,0.1,0.5,0.5,0.4,1h-0.1c-0.4-0.2-0.9,0-1.1,0.3h-0.1c-0.2-0.2-0.3-0.6-0.2-0.9C277.4,25.8,277.7,25.7,278.3,25.8z
	 M280.2,20.8l-0.1,0.4c-0.3,0.8,0,1.6,0.7,2.1c0,0.1,0.2,0.1,0.4,0.2l0.2,0.1l0.3,0.1l0,0.1c-0.5,0.5-1.3,0.7-2,0.5h-0.1
	c-0.8-0.3-1.3-1.2-1.1-2l0.1-0.3C278.9,21.2,279.5,20.8,280.2,20.8L280.2,20.8z M281.9,15.9l-2.2,5.9c0,0,0.1,0,0.1,0v0.1l-0.2,0.3
	c-0.1,0.3,0,0.6,0.2,0.8l2.1,0.7c1.4,0.3,2.8,0.5,4.1,0.7c0.4,0,1-0.1,1.7-0.3c0.2-0.1,0.4-0.2,0.5-0.4l0.9-2.5
	c0.1-1.1-0.1-1.9-0.4-2.2c-0.5-0.9-1.4-1.7-2.3-2.1c0-0.1-0.9-0.5-2.8-1.2l-0.3-0.1v0.1l-0.3-0.2C282.7,15.2,282.3,15.4,281.9,15.9
	C282,15.9,282,15.9,281.9,15.9L281.9,15.9z M283.4,14.5c0.6,0.2,1,0.8,1.1,1.4V16l-0.6-0.3h-0.1c-0.8-0.3-1.7,0-2.1,0.8l-0.2,0.4
	l-0.1,0.4c-0.4-0.5-0.6-1.2-0.4-1.8v-0.1c0.3-0.8,1.2-1.3,2-1.1L283.4,14.5z M284,27L284,27c0.9,0.3,1.3,1.2,1.2,2l-0.1,0.3
	c-0.2,0.4-0.5,0.8-0.8,1c-0.3-1-0.5-1.6-0.8-1.6c0-0.1-0.1-0.3-0.6-0.4l-0.4-0.1c0,0,0-0.1,0-0.1c0,0,0,0,0,0c-0.2,0-0.4,0-0.6-0.1
	v-0.1c0.2-0.5,0.6-0.8,1.1-0.9C283.4,26.9,283.7,26.9,284,27L284,27z M283.8,27.8c0.4,0.1,0.5,0.5,0.4,1l-0.2,0.3H284
	c-0.1-0.5-0.3-0.8-0.5-0.9l-0.6-0.1V28C283,27.7,283.4,27.7,283.8,27.8L283.8,27.8z M288.6,26.9c0.4,0.1,0.8,0.5,1,0.9
	c-0.3-0.1-0.7,0.2-1.5,1l-0.1,0.4c-0.2,0.4-0.2,0.8,0,1.2v0.1h-0.3l-0.3-0.1c-0.8-0.3-1.3-1.2-1.1-2l0.1-0.3
	C286.7,27.2,287.5,26.8,288.6,26.9L288.6,26.9z"/>
<path class="st0" d="M304.7,20.2L304.7,20.2c0.5,0.2,0.7,0.4,0.6,0.5l0.3,0.1l1.8,0.9c1.9,0.8,3.6,2,5.1,3.3c0.6,0.6,1,1.3,1.3,2.1
	c0.5,0.3,0.9,1.2,1,2.8c0.1,0.9,0,1.9-0.4,2.8l-1.4,2.8c-0.6,1.5-2.1,2.4-3.7,2.4c-0.3,0.1-0.6,0.1-0.9,0.1
	c-0.1,0.7-0.1,1.4,0.1,2.2c0.1,1.4,0.3,2.8,0.5,4.2c0,0.1,0,0.5,0.1,1.1c0.1,0.4,0.1,0.9,0,1.3l-0.1,0.2c-0.4,0.6-1,0.9-1.7,0.9
	c-0.1,0-0.2,0-0.3-0.1l-0.2-0.1l-0.2-0.2c-0.6-0.7-0.9-1.6-1-2.5c-0.3-1.6-0.5-3.3-0.6-5c-0.1-0.8-0.2-1.6-0.3-2.3
	c-0.8-0.2-1.6-0.4-2.4-0.7l-3.3-1.7l-2.6,5c-0.4,0.7-1.2,1.1-2,0.9c-0.2,0-0.3-0.1-0.4-0.2h-0.1c-0.8-0.4-1.2-1.3-1-2.1
	c0.1-0.3,0.2-0.6,0.4-0.8l8.3-16.4c0.3-0.9,1.3-1.5,2.3-1.5C304,19.9,304.3,19.9,304.7,20.2z M300.2,34.2c0.7,0.4,1.1,1.1,1,1.9
	l-0.1,0.2l-0.4-0.2c-0.7-0.4-1.7-0.3-2.2,0.4c-0.1,0-0.1,0.2-0.3,0.4L298,37c-0.5-0.6-0.6-1.3-0.3-2l0,0
	C298.2,34.2,299,33.9,300.2,34.2L300.2,34.2z M299.5,34.4c0.4,0.2,0.5,0.5,0.3,1.1h-0.1c-0.4-0.2-0.8-0.1-1.1,0.2l-0.1-0.1
	c-0.2-0.3-0.3-0.6-0.1-0.9C298.6,34.4,299,34.3,299.5,34.4L299.5,34.4z M302,29.7l-0.2,0.3c-0.4,0.7-0.2,1.6,0.4,2.1
	c0,0.1,0.1,0.2,0.4,0.3l0.2,0.1l0.3,0.1l0,0.1c-0.6,0.5-1.3,0.6-2,0.3h-0.1c-0.8-0.4-1.1-1.3-0.9-2.1l0.1-0.3
	C300.7,30,301.3,29.6,302,29.7L302,29.7z M304.3,25l-2.9,5.6c0,0,0.1,0,0.1,0l0,0l-0.2,0.3c-0.1,0.3-0.1,0.6,0.1,0.8l2,0.9
	c1.1,0.4,2.5,0.8,4,1.1c0.4,0,1,0,1.7-0.1c0.2,0,0.4-0.2,0.5-0.4l1.2-2.4c0.2-1.1,0.1-1.9-0.2-2.2c-0.4-1-1.2-1.8-2.1-2.3
	c0.1-0.1-0.8-0.6-2.6-1.5l-0.3-0.1v0.1l-0.3-0.2C305.1,24.4,304.7,24.5,304.3,25C304.4,25,304.4,25,304.3,25L304.3,25z M305.2,36.3
	L305.2,36.3c0.8,0.4,1.2,1.3,0.9,2.1l-0.1,0.3c-0.2,0.4-0.6,0.7-1,0.9c-0.2-1-0.4-1.6-0.6-1.7c0.1-0.1-0.1-0.3-0.5-0.5l-0.4-0.2
	c0,0,0,0,0-0.1c0,0,0,0,0,0c-0.2,0-0.4-0.1-0.6-0.2v-0.1c0.3-0.4,0.7-0.7,1.2-0.7C304.5,36.1,304.9,36.2,305.2,36.3L305.2,36.3z
	 M305.9,23.9c0.6,0.3,0.9,0.9,0.9,1.5v0.1l-0.5-0.3h-0.1c-0.8-0.4-1.7-0.2-2.2,0.5l-0.2,0.4l-0.1,0.4c-0.4-0.5-0.5-1.2-0.2-1.8v-0.1
	c0.4-0.8,1.3-1.1,2.1-0.9L305.9,23.9z M304.8,37.1c0.4,0.2,0.5,0.5,0.3,1.1l-0.2,0.3h-0.1c-0.1-0.5-0.2-0.8-0.5-0.9l-0.6-0.2
	l0.1-0.1C304.1,37,304.5,36.9,304.8,37.1z M309.7,36.8c0.4,0.2,0.7,0.6,0.9,1c-0.2-0.1-0.8,0.1-1.5,0.8l-0.2,0.3
	c-0.2,0.4-0.2,0.8-0.1,1.2v0.1l-0.3-0.1l-0.3-0.1c-0.8-0.4-1.1-1.3-0.9-2.1l0.1-0.3C307.8,36.8,308.6,36.5,309.7,36.8z"/>
<path class="st0" d="M320.4,48.1l-0.1,0.1l-0.2-0.2c-0.5-0.2-0.8-0.1-0.9,0.1h0l0,0c-0.6,0.3-1.3,0.7-2.3,1.2
	c-0.5,0.3-1.2,0.7-2.1,1.3c-0.5,0.3-1.1,0.5-1.8,0.6c-0.3,0-0.5-0.1-0.7-0.2l-0.2-0.1l-0.5-0.5c-0.3-0.4-0.3-0.9,0-1.3
	c0.1-0.2,0.2-0.4,0.3-0.5l0.2-0.3c0.6-0.6,1.2-1.1,2-1.4c0.7-0.5,1.4-0.9,2.1-1.3c0.5-0.3,1.1-0.6,1.6-1c0.7-0.5,1.4-1,2-1.5
	c0.2,0,0.7-0.3,1.5-1.1c0.6-0.3,1.2-0.8,1.8-1.2c0.6-0.3,1.2-0.7,1.7-1.1c0.2-0.2,0.6-0.4,1.2-0.7s1.3-0.8,2.2-1.3l3.1-1.6
	c0.1-0.1,0.6,0,1.4,0.5c0.5,0.3,1,0.7,1.4,1.2c0,1.2-0.1,2.4-0.3,3.6l-0.6,3.6c-0.1,0.4-0.2,1-0.4,1.6c-0.1,0.4-0.2,0.9-0.3,1.3
	c-0.1,0.9-0.3,1.8-0.6,2.7l-0.2,0.9c0,0.3-0.3,1.3-0.7,3c-0.1,1.1-0.3,2.2-0.5,3.2c-0.1,0.6-0.3,1.3-0.6,1.8l-0.3,0.6
	c-0.3,0.4-0.7,0.6-1.2,0.7c-0.3-0.1-0.6-0.2-0.8-0.4L327,60c-0.4-0.5-0.5-1.2-0.3-1.8c0.1-0.9,0.3-1.9,0.5-2.8
	c0.1-0.5,0.1-0.9,0.2-1.4c0-0.1,0-0.2,0-0.3h0l0.1-0.1c0-0.2,0-0.3,0-0.6c-0.1-0.2-0.2-0.3-0.3-0.5v-0.1l-1.3-0.9
	C324.5,50.7,322.7,49.5,320.4,48.1z M320.5,46.8c0.6,0.4,0.9,1.2,0.7,1.9l0,0l-0.3-0.2c-0.9-0.7-2.2-0.6-3.1,0.2h-0.1
	c-0.1-0.5,0-0.9,0.3-1.3l0,0c0.5-0.7,1.4-1,2.2-0.6L320.5,46.8z M324.9,43.8l-0.1,0.1l-0.2,0.3c-0.5,0.7-0.4,1.7,0.3,2.2l0.3,0.2
	l-0.1,0.1c-0.6,0.4-1.4,0.4-2,0l0,0c-0.7-0.5-1-1.4-0.6-2.2l0.2-0.3c0.5-0.7,1.4-1,2.2-0.6L324.9,43.8z M329.2,40.6
	c-0.3,0.2-0.6,0.3-0.9,0.6c-0.4,0.3-0.9,0.6-1.2,0.9c-0.2,0.1-0.7,0.5-1.6,1.2c-0.5,0.3-0.9,0.6-1.3,0.9l-0.8,0.5
	c0,0.3,0,0.5-0.1,0.8l0.2,0.3l0,0l4.3,2.8l0,0c0.4,0.1,0.8,0,0.9-0.4l0-0.1c0.1-0.4,0.2-0.9,0.3-1.3c0-0.2,0.1-0.4,0.2-0.8
	s0.2-0.8,0.4-1.5c0.1-0.3,0.2-1.2,0.6-2.6c0-0.2,0-0.3,0.1-0.5l0,0l-0.1-0.1c-0.1-0.2-0.2-0.3-0.3-0.4c-0.2-0.1-0.4-0.1-0.6-0.1
	L329.2,40.6z M328.6,51.5c0.7,0.5,1,1.4,0.6,2.2L329,54c-0.4,0.5-1,0.8-1.6,0.7l-0.1-0.1c0.2-1.2,0-2-0.7-2.4h-0.1l-0.1-0.1
	 M326.3,52h-0.1h0c0.5-0.7,1.4-1,2.2-0.6L326.3,52z M329,46.8l0.1,0.1c0.7,0.5,1,1.4,0.6,2.2l-0.2,0.3c-0.5,0.7-1.4,1-2.2,0.6
	l-0.3-0.2c-0.7-0.5-1-1.4-0.6-2.2c0.7,0.4,1.5,0.3,2.1-0.3L329,46.8z M330.8,39.5c0.7,0.5,1,1.4,0.6,2.2l-0.2,0.3
	c-0.2,0.3-0.5,0.6-0.9,0.6c0,0.3-0.1,0.6-0.3,0.9l-0.1,0.2l-0.2,0.2h0c0.1-0.6-0.2-1.2-0.7-1.5h0c-0.6-0.4-1.5-0.4-2,0.1
	c-0.1-0.2,0-0.5,0.2-0.9v-0.1c0.3-0.3,0.6-0.6,1-0.7l0,0c-0.1-0.1,0-0.3,0.2-0.7l0,0c0.5-0.7,1.4-1,2.2-0.6L330.8,39.5z"/>
<path class="st0" d="M357.3,54.9L357.3,54.9c0.7,0.5,0.9,1.4,0.5,2.1c0,0.1-0.1,0.2-0.2,0.4l-0.1,0.1c-0.6,0.5-1.4,0.8-2.2,0.7
	c-1,0.2-2.1,0.3-3.1,0.3l-3.2-0.1c-1,0.1-2,0.2-3,0.4l-7.3,8.8c-0.5,0.6-1.3,0.8-2.1,0.5c-0.1,0-0.2-0.1-0.4-0.2l-0.1-0.1
	c-0.6-0.5-0.8-1.4-0.5-2.1c0.1-0.1,0.1-0.3,0.2-0.4l7.5-9c-0.3-0.7-0.4-1.5-0.5-2.3c0-0.8-0.1-1.6-0.3-2.3c0.2-0.3,0-1.2-0.4-2.5
	c-0.1-0.8-0.4-1.5-0.6-2.3c-0.2-0.6-0.1-1.2,0.3-1.7l0,0c0.5-0.6,1.4-0.8,2.1-0.5c0.1,0,0.3,0.1,0.4,0.2l0.1,0.1
	c0.4,0.6,0.7,1.3,0.9,2.1c0.3,0.6,0.4,1.2,0.4,1.9c0.3,0.9,0.5,1.9,0.5,2.9c0.3,2.1,0.5,3.2,0.5,3.2c1.1-0.2,2.3-0.3,3.4-0.2
	c1.2,0.1,2.4,0.1,3.6,0C355.6,54.4,356.7,54.4,357.3,54.9z M343.3,54.6L343.3,54.6c0.7,0.6,0.9,1.5,0.4,2.2l-0.2,0.2
	c-0.3,0.4-0.9,0.6-1.4,0.6c0.5-0.6,0.7-1.4,0.6-2.2c0.1-0.3,0.1-0.6,0-0.9c0.1-0.1,0.1-0.2,0-0.2c0,0,0,0,0,0l0.1-0.1L343.3,54.6z
	 M344.1,55.7c0.3,0.3,0.3,0.6,0.1,1.1c-0.3,0.3-0.8,0.3-1.2,0l0.1-0.1c0.2-0.3,0.3-0.8,0.1-1.1C343.5,55.4,343.8,55.5,344.1,55.7z
	 M347.7,58.5c0,0.1-0.2,0.1-0.6,0.1c-0.7,0.3-1.4,0.7-2,1.2l-0.2,0.2l-0.2,0.4h0c-0.3-0.6-0.2-1.3,0.2-1.8l0,0
	c0.5-0.7,1.5-0.8,2.2-0.4L347.7,58.5z M346.5,58.1c0.2,0.2,0.2,0.4,0.2,0.6c-0.5,0.1-0.9,0.3-1.2,0.6h0c-0.3-0.2-0.3-0.6-0.1-1.1
	C345.6,57.9,346,57.8,346.5,58.1L346.5,58.1z M346.5,52.6c-0.1,0.7,0.1,1.3,0.6,1.8v0.1c0.4,0.4,1.1,0.5,1.6,0.2h0
	c0.1,0.1,0,0.3-0.3,0.7v0.1c-0.6,0.7-1.5,0.8-2.2,0.4l-0.2-0.2c-0.7-0.5-0.8-1.5-0.4-2.2l0.2-0.2C346,52.9,346.2,52.8,346.5,52.6
	L346.5,52.6z M346.6,53.9c0,0.3,0.1,0.6,0.3,0.8c0.2,0.1,0.5,0.2,0.8,0.2v0.1c-0.4,0.4-0.8,0.5-1.2,0.2c-0.3-0.3-0.3-0.8,0-1.2
	C346.5,54,346.5,54,346.6,53.9L346.6,53.9z"/>
</svg>
